<?xml version="1.0" standalone="no"?>
<!DOCTYPE svg PUBLIC "-//W3C//DTD SVG 1.1//EN" "http://www.w3.org/Graphics/SVG/1.1/DTD/svg11.dtd" >
<svg xmlns="http://www.w3.org/2000/svg" xmlns:xlink="http://www.w3.org/1999/xlink" version="1.1">
<metadata>
Created by FontForge 20170924 at Mon Jun 20 06:42:23 2022
 By www-data
</metadata>
<defs>
<font id="CH-Kids-Regular" horiz-adv-x="0" >
  <font-face 
    font-family="CH Kids"
    font-weight="400"
    font-stretch="normal"
    units-per-em="1000"
    panose-1="0 0 0 0 0 0 0 0 0 0"
    ascent="800"
    descent="-200"
    x-height="558"
    cap-height="722"
    bbox="-190.904 -347.063 754.936 876.906"
    underline-thickness="50"
    underline-position="-100"
    unicode-range="U+000A-2212"
  />
<missing-glyph horiz-adv-x="527" 
 />
    <glyph glyph-name=".notdef" horiz-adv-x="527" 
 />
    <glyph glyph-name="null" 
 />
    <glyph glyph-name="null" 
 />
    <glyph glyph-name="controlLF" unicode="&#xa;" 
 />
    <glyph glyph-name="controlCR" unicode="&#xd;" 
 />
    <glyph glyph-name="space" unicode=" " horiz-adv-x="250" 
 />
    <glyph glyph-name="exclam" unicode="!" horiz-adv-x="201" 
d="M143 249c0 -39 -46 -58 -71 -28c-6 7 -9 16 -9 25c0 113 0 226 2 339c1 18 1 106 5 124c8 32 49 42 71 16c5 -7 9 -17 8 -26c-4 -58 -6 -391 -6 -450zM108 32c-33 -14 -66 16 -59 51c2 10 8 20 17 26c3 2 20 8 24 9c29 13 61 -13 55 -44c-3 -14 -24 -36 -37 -42z" />
    <glyph glyph-name="quotedbl" unicode="&#x22;" horiz-adv-x="262" 
d="M230 531c3 -49 -68 -58 -79 -10c-2 10 -4 61 -5 71c-1 19 -3 89 4 106c13 31 56 33 72 3c3 -6 5 -12 5 -19c-3 -50 0 -101 3 -151zM114 538c2 -44 -58 -57 -76 -17c-7 15 -6 74 -5 90c1 17 5 70 16 83c28 34 80 12 72 -31c-3 -15 -7 -30 -8 -45c-2 -27 0 -53 1 -80z" />
    <glyph glyph-name="quotedbl" unicode="&#x201f;" horiz-adv-x="262" 
d="M230 531c3 -49 -68 -58 -79 -10c-2 10 -4 61 -5 71c-1 19 -3 89 4 106c13 31 56 33 72 3c3 -6 5 -12 5 -19c-3 -50 0 -101 3 -151zM114 538c2 -44 -58 -57 -76 -17c-7 15 -6 74 -5 90c1 17 5 70 16 83c28 34 80 12 72 -31c-3 -15 -7 -30 -8 -45c-2 -27 0 -53 1 -80z" />
    <glyph glyph-name="quotedbl" unicode="&#x201e;" horiz-adv-x="262" 
d="M230 531c3 -49 -68 -58 -79 -10c-2 10 -4 61 -5 71c-1 19 -3 89 4 106c13 31 56 33 72 3c3 -6 5 -12 5 -19c-3 -50 0 -101 3 -151zM114 538c2 -44 -58 -57 -76 -17c-7 15 -6 74 -5 90c1 17 5 70 16 83c28 34 80 12 72 -31c-3 -15 -7 -30 -8 -45c-2 -27 0 -53 1 -80z" />
    <glyph glyph-name="quotedbl" unicode="&#x201d;" horiz-adv-x="262" 
d="M230 531c3 -49 -68 -58 -79 -10c-2 10 -4 61 -5 71c-1 19 -3 89 4 106c13 31 56 33 72 3c3 -6 5 -12 5 -19c-3 -50 0 -101 3 -151zM114 538c2 -44 -58 -57 -76 -17c-7 15 -6 74 -5 90c1 17 5 70 16 83c28 34 80 12 72 -31c-3 -15 -7 -30 -8 -45c-2 -27 0 -53 1 -80z" />
    <glyph glyph-name="quotedbl" unicode="&#x201c;" horiz-adv-x="262" 
d="M230 531c3 -49 -68 -58 -79 -10c-2 10 -4 61 -5 71c-1 19 -3 89 4 106c13 31 56 33 72 3c3 -6 5 -12 5 -19c-3 -50 0 -101 3 -151zM114 538c2 -44 -58 -57 -76 -17c-7 15 -6 74 -5 90c1 17 5 70 16 83c28 34 80 12 72 -31c-3 -15 -7 -30 -8 -45c-2 -27 0 -53 1 -80z" />
    <glyph glyph-name="quotedbl" unicode="&#xbb;" horiz-adv-x="262" 
d="M230 531c3 -49 -68 -58 -79 -10c-2 10 -4 61 -5 71c-1 19 -3 89 4 106c13 31 56 33 72 3c3 -6 5 -12 5 -19c-3 -50 0 -101 3 -151zM114 538c2 -44 -58 -57 -76 -17c-7 15 -6 74 -5 90c1 17 5 70 16 83c28 34 80 12 72 -31c-3 -15 -7 -30 -8 -45c-2 -27 0 -53 1 -80z" />
    <glyph glyph-name="quotedbl" unicode="&#xab;" horiz-adv-x="262" 
d="M230 531c3 -49 -68 -58 -79 -10c-2 10 -4 61 -5 71c-1 19 -3 89 4 106c13 31 56 33 72 3c3 -6 5 -12 5 -19c-3 -50 0 -101 3 -151zM114 538c2 -44 -58 -57 -76 -17c-7 15 -6 74 -5 90c1 17 5 70 16 83c28 34 80 12 72 -31c-3 -15 -7 -30 -8 -45c-2 -27 0 -53 1 -80z" />
    <glyph glyph-name="numbersign" unicode="#" horiz-adv-x="622" 
d="M402 65c-5 -35 -48 -48 -70 -21c-6 7 -11 17 -10 26c5 49 13 97 23 145c-37 0 -73 0 -109 1c-6 -35 -11 -70 -16 -106c-2 -10 -10 -21 -19 -26c-31 -17 -65 8 -60 42c5 31 10 63 14 94c-31 2 -63 4 -94 8c-9 0 -18 6 -24 13c-22 28 -1 69 35 66c31 -3 62 -6 93 -8
c2 0 4 0 4 2c5 27 11 54 17 81c-12 1 -77 4 -89 7c-49 10 -39 83 11 79c32 -3 65 -6 98 -8c10 38 54 189 76 220c29 38 87 8 71 -37c-2 -5 -5 -9 -7 -13c-15 -23 -50 -143 -57 -170c-1 -2 -1 -2 2 -2h111c5 18 32 127 36 145c2 8 10 39 15 45c6 8 15 15 25 17
c32 7 58 -25 46 -55c-8 -20 -34 -130 -39 -151c20 0 40 1 60 1c49 1 57 -70 9 -79c-13 -3 -77 -2 -89 -2c-7 -27 -14 -54 -20 -82c30 1 60 3 90 4c45 3 59 -60 17 -77c-5 -2 -11 -2 -17 -3c-36 -1 -72 -3 -108 -4c-12 -50 -19 -101 -25 -152zM250 296c37 -1 75 -1 112 -1
c7 28 13 55 20 83h-115c-6 -27 -12 -55 -17 -82z" />
    <glyph glyph-name="dollar" unicode="$" horiz-adv-x="485" 
d="M303 -80c2 -56 -78 -58 -80 -2c-1 34 -2 68 -2 102c-52 6 -104 33 -141 71c-14 15 -26 34 -34 53c-11 30 -21 101 -4 127c24 38 84 13 72 -31c-1 -5 -1 -28 -1 -34c1 -19 7 -39 20 -53c22 -26 54 -45 87 -52c-1 67 -1 134 -1 200c-43 44 -77 102 -90 162
c-10 51 -2 110 28 153c17 25 43 48 72 57c1 48 3 95 4 143c1 56 81 56 80 -1c-1 -47 -3 -93 -4 -140c30 -7 61 -22 82 -45c19 -20 30 -47 39 -72c1 -4 5 -6 8 -9c22 -23 10 -61 -21 -67c-18 -4 -40 7 -51 22c-5 7 -20 52 -24 59c-8 14 -22 23 -36 29c-3 -85 -5 -171 -6 -256
c29 -26 61 -52 83 -85c17 -25 28 -56 28 -86c-1 -28 -10 -56 -26 -79c-20 -27 -52 -49 -84 -59c0 -35 1 -71 2 -107zM205 497c2 -21 8 -41 16 -60c1 46 3 91 4 137c-15 -22 -23 -51 -20 -77zM299 228v-111c0 -1 0 -3 2 -2c18 12 32 36 29 58c-2 21 -16 40 -31 55z" />
    <glyph glyph-name="percent" unicode="%" horiz-adv-x="641" 
d="M226 375c-33 -20 -74 -18 -106 6c-20 16 -36 37 -47 60c-24 51 -36 112 -27 168c7 34 20 69 45 94c12 14 52 31 71 29c21 -2 43 -8 59 -20c24 -17 39 -45 50 -71c22 -55 29 -120 13 -177c-10 -34 -28 -70 -58 -89zM177 441c5 0 11 5 14 10c10 14 16 32 19 49
c7 37 1 77 -14 112c-4 10 -15 34 -25 37c-6 2 -19 2 -24 -2c-13 -11 -23 -52 -24 -69c-1 -35 7 -70 21 -101c6 -11 20 -34 33 -36zM108 -31c-8 -8 -20 -13 -32 -11c-31 3 -47 39 -28 64c37 48 73 97 107 148c42 63 80 130 121 194c69 106 142 209 214 313c32 47 98 2 66 -45
c-72 -104 -144 -207 -213 -313c-39 -59 -74 -120 -112 -179c-17 -25 -102 -149 -123 -171zM536 -18c-34 -20 -75 -18 -107 6c-20 16 -36 37 -46 60c-27 57 -40 126 -23 186c8 27 20 56 40 76c13 13 53 31 71 29c21 -2 43 -8 60 -20c23 -17 39 -45 50 -72
c22 -54 28 -119 12 -176c-10 -34 -27 -70 -57 -89zM486 48c6 0 11 5 15 10c10 14 15 32 18 49c7 37 1 77 -13 112c-4 10 -15 34 -26 37c-5 2 -18 1 -23 -2c-14 -11 -24 -52 -24 -70c-1 -34 6 -69 21 -100c5 -11 20 -34 32 -36z" />
    <glyph glyph-name="ampersand" unicode="&#x26;" horiz-adv-x="571" 
d="M597 -20c27 -25 11 -70 -26 -70c-10 -1 -21 4 -29 11c-47 43 -93 86 -137 132c-30 -32 -71 -57 -114 -66c-28 -6 -58 -5 -87 1c-48 12 -93 43 -125 81c-21 25 -38 58 -40 92c-2 45 23 89 51 125c19 24 40 47 61 69c-37 62 -68 136 -61 209c7 77 49 154 112 202
c24 18 55 32 85 32c28 1 57 -12 77 -31c16 -14 27 -33 34 -53c14 -39 17 -84 9 -124c-8 -46 -29 -91 -56 -130c-29 -41 -63 -78 -97 -114c41 -57 88 -110 136 -162c2 -2 2 -1 3 1c7 23 11 47 13 70c1 5 2 32 3 37c7 49 81 41 79 -9c-3 -54 -9 -110 -33 -159
c-2 -2 -3 -5 -2 -7c47 -47 95 -93 144 -137zM170 526c3 -39 19 -77 39 -111c30 32 60 64 83 101c27 42 45 95 38 144c-3 20 -9 42 -26 53c-21 15 -53 -7 -71 -25c-26 -27 -48 -61 -58 -97c-6 -21 -7 -43 -5 -65zM238 63c14 -1 29 0 44 4c25 6 48 23 66 42c1 2 0 3 -1 4
c-53 56 -104 113 -150 174c-18 -19 -36 -39 -52 -60c-13 -18 -27 -40 -26 -62c1 -20 15 -39 29 -53c24 -25 56 -45 90 -49z" />
    <glyph glyph-name="quotesingle" unicode="'" horiz-adv-x="157" 
d="M107 573c-6 -44 -70 -45 -79 -1c-2 12 7 62 9 74c2 16 11 78 20 91c23 39 82 14 72 -30s-15 -89 -22 -134z" />
    <glyph glyph-name="quotesingle" unicode="&#x203a;" horiz-adv-x="157" 
d="M107 573c-6 -44 -70 -45 -79 -1c-2 12 7 62 9 74c2 16 11 78 20 91c23 39 82 14 72 -30s-15 -89 -22 -134z" />
    <glyph glyph-name="quotesingle" unicode="&#x2039;" horiz-adv-x="157" 
d="M107 573c-6 -44 -70 -45 -79 -1c-2 12 7 62 9 74c2 16 11 78 20 91c23 39 82 14 72 -30s-15 -89 -22 -134z" />
    <glyph glyph-name="quotesingle" unicode="&#x201b;" horiz-adv-x="157" 
d="M107 573c-6 -44 -70 -45 -79 -1c-2 12 7 62 9 74c2 16 11 78 20 91c23 39 82 14 72 -30s-15 -89 -22 -134z" />
    <glyph glyph-name="quotesingle" unicode="&#x201a;" horiz-adv-x="157" 
d="M107 573c-6 -44 -70 -45 -79 -1c-2 12 7 62 9 74c2 16 11 78 20 91c23 39 82 14 72 -30s-15 -89 -22 -134z" />
    <glyph glyph-name="quotesingle" unicode="&#x2019;" horiz-adv-x="157" 
d="M107 573c-6 -44 -70 -45 -79 -1c-2 12 7 62 9 74c2 16 11 78 20 91c23 39 82 14 72 -30s-15 -89 -22 -134z" />
    <glyph glyph-name="quotesingle" unicode="&#x2018;" horiz-adv-x="157" 
d="M107 573c-6 -44 -70 -45 -79 -1c-2 12 7 62 9 74c2 16 11 78 20 91c23 39 82 14 72 -30s-15 -89 -22 -134z" />
    <glyph glyph-name="parenleft" unicode="(" horiz-adv-x="421" 
d="M370 -75c-15 -5 -33 2 -48 6c-33 10 -65 22 -93 40c-32 20 -58 48 -81 78c-38 51 -66 112 -83 174c-27 94 -29 200 0 294c21 66 65 128 118 172c24 19 49 36 77 48c24 9 51 16 78 14c14 -2 29 -5 41 -14c3 -2 16 -13 18 -15c30 -32 -4 -81 -44 -65c-7 3 -12 9 -18 13
c-1 2 -6 1 -8 1c-28 -1 -54 -15 -77 -31c-43 -29 -77 -72 -98 -120c-27 -61 -33 -133 -25 -200c10 -83 41 -168 93 -234c21 -26 48 -48 78 -62c24 -10 50 -17 76 -24c1 -1 6 -3 7 -4c28 -19 21 -62 -11 -71z" />
    <glyph glyph-name="parenright" unicode=")" horiz-adv-x="421" 
d="M73 -71c-48 -13 -71 58 -25 76c5 2 32 9 36 10c25 7 49 17 69 31c34 23 60 58 81 93c43 74 64 162 63 247c0 46 -7 92 -25 134c-17 42 -46 80 -80 109c-25 22 -55 40 -87 46c-5 1 -16 3 -19 0c-2 -1 -9 -7 -10 -8c-23 -17 -57 -4 -62 24c-3 13 2 29 12 38
c9 7 18 16 29 21c17 7 37 7 55 5c33 -4 65 -17 93 -35c65 -39 117 -104 145 -175c27 -67 33 -143 27 -215c-6 -80 -32 -161 -72 -231c-26 -46 -61 -89 -105 -119c-37 -25 -82 -39 -125 -51z" />
    <glyph glyph-name="plus" unicode="+" horiz-adv-x="448" 
d="M245 123c4 -45 -60 -60 -77 -18c-10 24 -8 128 -8 155c0 1 1 3 -1 3c-37 0 -74 8 -110 19c-14 4 -25 22 -25 37c0 28 27 45 54 37c27 -7 55 -13 83 -13c0 20 -3 97 5 115c13 31 56 33 72 3c3 -6 5 -12 5 -19c-3 -30 -2 -60 -2 -90c0 -2 0 -3 3 -3c34 3 69 6 103 5
c7 -1 40 -3 46 -5c38 -9 43 -61 7 -76c-13 -6 -29 -1 -44 0c-39 3 -77 -1 -116 -4c-1 -49 0 -98 5 -146z" />
    <glyph glyph-name="comma" unicode="," horiz-adv-x="154" 
d="M57 -207c-29 -20 -67 6 -61 41c1 9 7 16 12 25c18 36 30 76 40 116c-27 10 -35 42 -23 67c13 30 45 48 74 35c13 -6 28 -15 33 -28c3 -7 4 -15 2 -23c0 -3 -1 -5 -1 -8c2 -30 -6 -60 -15 -89c-9 -30 -35 -118 -61 -136z" />
    <glyph glyph-name="hyphen" unicode="-" horiz-adv-x="460" 
d="M409 280c-47 -7 -285 -4 -332 -2c-4 1 -23 1 -26 2c-33 7 -43 49 -17 70c7 6 16 10 25 9c43 -2 276 -4 318 -2c11 0 22 3 32 1c33 -7 44 -49 18 -70c-5 -4 -12 -8 -18 -8z" />
    <glyph glyph-name="period" unicode="." horiz-adv-x="123" 
d="M80 -4c-26 -18 -61 0 -62 32c0 12 7 24 14 35c20 27 61 21 71 -11c6 -20 -6 -45 -23 -56z" />
    <glyph glyph-name="zero" unicode="0" horiz-adv-x="511" 
d="M320 -18c-22 -16 -51 -25 -78 -25c-26 0 -52 8 -73 23c-29 19 -50 48 -66 79c-32 58 -47 125 -53 191c-9 92 -2 188 30 274c14 40 36 78 63 111c22 27 51 53 85 65c24 8 51 11 76 6c29 -7 57 -23 77 -45c31 -33 50 -78 62 -122c12 -42 20 -86 21 -130
c0 -56 -8 -113 -13 -169c0 -2 -1 -14 -1 -16c-2 -7 -5 -14 -10 -19c-8 -46 -23 -91 -45 -133c-18 -34 -43 -68 -75 -90zM208 50c10 -9 25 -15 39 -13c55 5 94 98 108 152c13 51 15 105 16 158c0 8 3 16 7 23c2 2 5 5 5 8c3 65 -8 132 -36 191c-9 21 -24 42 -45 53
c-10 6 -24 8 -36 6c-23 -5 -43 -22 -58 -40c-32 -35 -53 -81 -65 -127c-18 -70 -21 -145 -13 -217c7 -51 20 -103 43 -149c9 -16 20 -33 35 -45z" />
    <glyph glyph-name="one" unicode="1" horiz-adv-x="339" 
d="M277 -28c-14 -39 -73 -32 -77 9c-6 65 2 428 2 492c-1 43 -2 86 -8 129c-24 -35 -47 -71 -71 -106c-6 -8 -29 -43 -38 -48c-27 -18 -63 2 -62 34c0 18 15 33 26 48c15 21 90 135 108 154c9 10 20 18 32 23c12 4 25 4 37 0c14 -6 26 -20 33 -34c14 -27 15 -59 18 -90
c3 -36 4 -73 5 -110c0 -61 -7 -418 -3 -480c1 -7 1 -14 -2 -21z" />
    <glyph glyph-name="two" unicode="2" horiz-adv-x="477" 
d="M161 0c-22 -1 -45 -3 -66 3c-9 3 -24 17 -27 26c-2 10 -4 20 -1 30c2 8 6 16 10 23c6 10 42 60 48 69c33 46 65 92 92 141c23 41 42 87 49 133c7 52 -9 146 -52 173c-11 7 -26 10 -38 7c-8 -3 -15 -9 -20 -15c-11 -11 -17 -27 -21 -42c-8 -28 -12 -57 -15 -86
c-1 -9 -1 -19 -4 -27c-16 -36 -69 -30 -76 8c-4 16 7 78 10 94c6 30 15 61 32 87c15 23 36 44 62 54c20 8 44 10 66 6c25 -4 49 -18 68 -35c16 -14 28 -32 38 -51c24 -47 34 -101 32 -154c-3 -59 -23 -118 -51 -171c-35 -67 -79 -130 -123 -191c44 4 89 8 133 8
c42 0 84 -4 126 -10c23 -2 38 -24 34 -47c-4 -18 -22 -34 -41 -32c-39 4 -78 9 -118 9c-49 0 -98 -5 -147 -10z" />
    <glyph glyph-name="three" unicode="3" horiz-adv-x="505" 
d="M397 92c-51 -51 -129 -82 -201 -76c-33 2 -68 17 -90 41c-21 23 -36 52 -45 82c-13 38 -20 77 -27 116c-3 12 1 25 9 34c22 27 63 12 70 -22c6 -35 12 -70 24 -104c7 -22 17 -46 37 -59c14 -10 34 -10 51 -9c46 5 93 28 124 62c13 14 22 32 28 51c7 22 7 49 -5 69
c-14 21 -34 37 -54 53c-16 12 -33 24 -42 42c-7 13 -8 30 -3 44c6 15 19 26 32 35c19 14 40 27 53 47c6 8 11 18 10 28c-4 33 -65 79 -94 95c-9 5 -33 16 -43 14c-6 -1 -10 -8 -13 -13c-10 -16 -16 -36 -21 -54c7 -15 6 -31 -4 -44c-21 -24 -63 -16 -75 15
c-13 33 18 105 38 134c8 11 17 21 28 28c18 11 37 16 57 14c68 -5 172 -86 198 -148c10 -23 12 -50 5 -73c-12 -40 -45 -74 -80 -99c35 -27 73 -59 88 -101c11 -32 12 -68 4 -100c-9 -38 -31 -74 -59 -102z" />
    <glyph glyph-name="four" unicode="4" horiz-adv-x="539" 
d="M316 40c7 -43 -49 -66 -72 -29c-9 13 -11 30 -12 46c-2 41 4 83 8 124c0 3 0 3 -3 3c-33 -1 -67 0 -100 7c-25 5 -50 16 -68 34c-16 15 -26 36 -30 57c-4 20 -3 41 -1 61c3 35 13 69 24 103c15 49 33 97 54 144c15 36 32 72 53 105c9 13 21 25 34 33c11 5 24 6 36 3
c11 -2 22 -10 30 -19c21 -25 31 -59 38 -91c6 -28 10 -56 13 -85c9 -88 10 -178 6 -267c29 3 57 6 86 8c16 2 73 7 88 0c31 -12 33 -56 3 -71c-6 -4 -12 -6 -19 -5c-22 1 -139 -10 -162 -12c-2 0 -2 -2 -2 -4c-2 -21 -12 -113 -7 -134c0 -1 3 -10 3 -11zM191 265
c18 -1 36 -2 55 -1c4 82 3 165 -4 246c-3 40 -8 80 -20 119c-29 -54 -51 -112 -72 -170c-12 -35 -45 -136 -30 -171c9 -19 51 -22 71 -23z" />
    <glyph glyph-name="five" unicode="5" horiz-adv-x="515" 
d="M237 35c-28 -4 -58 -1 -84 9c-33 13 -63 38 -82 68c-19 29 -28 65 -28 99c0 49 70 56 79 8c4 -19 2 -41 12 -58c12 -20 32 -38 55 -45c52 -15 122 30 149 77c22 40 20 110 -13 142c-8 8 -20 12 -32 13c-43 3 -85 -17 -128 -21c-16 -1 -33 3 -46 11c-13 9 -24 23 -28 38
c-10 33 -12 69 -13 105c-1 63 4 126 14 188c-20 17 -17 48 4 63c10 7 24 7 37 6c31 -3 62 -4 94 -4c28 0 193 0 222 -1c5 -1 10 -1 15 -4c40 -17 28 -77 -16 -76c-34 0 -240 1 -274 2c-2 0 -4 -2 -4 -4c-11 -68 -15 -138 -10 -207c0 -11 2 -23 4 -34c1 -2 1 -2 4 -2
c48 8 97 26 146 18c36 -6 68 -28 88 -60c52 -83 37 -195 -34 -262c-36 -34 -82 -62 -131 -69z" />
    <glyph glyph-name="six" unicode="6" horiz-adv-x="443" 
d="M309 -1c-25 -12 -55 -15 -82 -10c-26 5 -51 18 -72 35c-26 20 -48 46 -63 74c-2 3 -6 3 -8 5c-9 6 -15 15 -17 25c-1 3 0 21 0 24c-1 2 -5 16 -6 19c-18 61 -16 127 -9 190c6 59 17 118 32 175c12 48 27 96 52 138c21 33 56 63 94 69c24 3 49 -1 71 -10
c37 -16 70 -47 89 -83c9 -19 13 -42 11 -64c0 -7 0 -15 -3 -22c-15 -36 -69 -31 -76 8c-3 14 2 29 -4 42c-9 21 -30 38 -52 47c-11 4 -25 4 -35 -1c-16 -8 -27 -26 -35 -42c-29 -60 -43 -127 -54 -193c-12 -62 -20 -126 -13 -189c47 30 109 45 163 34c34 -7 63 -28 80 -59
c43 -77 18 -175 -63 -212zM201 89c16 -13 37 -25 58 -22c24 3 44 19 51 42s1 63 -20 76c-13 9 -31 10 -47 8c-32 -4 -67 -16 -88 -40c-1 -1 -1 -2 -1 -2c11 -24 27 -46 47 -62z" />
    <glyph glyph-name="seven" unicode="7" horiz-adv-x="411" 
d="M220 49c-6 -50 -80 -45 -79 5c0 1 0 7 1 8c6 58 14 115 29 172c22 85 55 167 86 249c11 27 49 122 44 151c-13 8 -64 5 -79 5c-42 -1 -176 -8 -211 16c-33 22 -17 74 23 73c6 0 39 -8 45 -8c68 -11 138 5 207 -2c21 -2 44 -6 61 -18c8 -6 14 -12 20 -20
c11 -15 14 -35 14 -53c0 -28 -8 -54 -16 -80c-31 -100 -76 -195 -107 -295c-19 -66 -30 -135 -38 -203z" />
    <glyph glyph-name="eight" unicode="8" horiz-adv-x="489" 
d="M406 59c-32 -85 -141 -145 -230 -126c-33 7 -66 27 -84 55c-21 32 -25 76 -21 115s18 76 34 112c20 45 45 88 71 129c-43 36 -86 75 -112 125c-17 34 -23 75 -18 113c6 54 28 111 66 151c19 20 45 35 73 41c30 6 63 2 92 -7c20 -6 40 -14 56 -26c23 -17 42 -41 54 -67
c9 -18 14 -38 20 -57c41 4 62 -41 32 -70c-27 -27 -54 -54 -78 -83c-29 -33 -55 -69 -80 -105c35 -31 69 -65 94 -104c25 -40 42 -88 42 -135c0 -21 -3 -42 -11 -61zM141 495c19 -32 48 -58 77 -83c2 -1 3 0 4 2c37 53 77 105 122 151c2 2 0 3 -1 4c-9 8 -12 21 -15 32
c-6 22 -13 44 -27 61c-22 28 -77 44 -110 30c-11 -4 -21 -13 -28 -22c-22 -29 -35 -66 -39 -102c-2 -24 4 -51 17 -73zM152 47c14 -50 80 -45 125 -19c24 15 48 37 57 65c8 30 1 64 -12 93c-19 41 -52 75 -85 105c-30 -47 -58 -97 -76 -150c-10 -30 -17 -64 -9 -94z" />
    <glyph glyph-name="nine" unicode="9" horiz-adv-x="472" 
d="M294 -16c-27 -5 -55 0 -81 8c-43 13 -87 31 -122 59c-21 17 -41 38 -51 63c-17 45 43 77 70 38c6 -9 10 -19 17 -26c13 -14 29 -24 46 -32c25 -13 51 -24 78 -29c8 -2 26 -5 32 -1c6 5 13 27 15 35c6 27 11 56 14 84c9 65 15 130 19 196c-23 -34 -52 -66 -87 -87
c-20 -12 -44 -21 -68 -20c-71 3 -102 83 -100 154c2 58 20 116 45 169c16 31 34 62 59 88c17 18 40 34 65 41c28 8 63 0 87 -18c23 -16 40 -39 53 -63c2 -3 6 -3 9 -4c15 -6 30 -30 30 -47c0 -11 -6 -22 -14 -30c11 -69 5 -139 -1 -209c-5 -70 -11 -141 -22 -211
c-4 -28 -9 -57 -18 -84c-6 -18 -15 -36 -29 -50c-12 -12 -29 -21 -46 -24zM178 352c8 -2 27 10 34 15c28 21 51 49 67 80c22 40 34 84 46 128c2 7 -7 24 -10 31c-7 14 -28 40 -44 41c-13 1 -34 -19 -42 -30c-21 -25 -36 -55 -48 -85c-14 -34 -23 -70 -25 -107
c0 -20 1 -41 9 -58c3 -5 8 -14 13 -15z" />
    <glyph glyph-name="colon" unicode=":" horiz-adv-x="161" 
d="M80 400c-7 -1 -14 -2 -21 -1c-34 6 -45 49 -21 73c14 14 37 16 52 5c2 -2 4 -3 7 -4c30 -21 19 -68 -17 -73zM119 78c35 -26 13 -81 -30 -73c-18 4 -36 19 -39 36c-5 25 14 49 40 48c10 0 21 -5 29 -11z" />
    <glyph glyph-name="semicolon" unicode=";" horiz-adv-x="166" 
d="M93 380c-17 -8 -36 -5 -48 7c-10 10 -13 24 -14 38c-1 28 29 48 56 37c1 0 9 0 10 -1c26 -6 39 -34 27 -58c-6 -11 -19 -18 -31 -23zM95 -140c-26 -39 -86 -20 -77 26c0 3 4 12 6 15c13 16 31 83 33 104c-48 25 -31 96 23 87c0 0 2 -1 3 -1c26 11 55 -8 55 -36
c0 -3 -4 -16 -3 -19c3 -13 3 -27 1 -40c-2 -26 -27 -115 -41 -136z" />
    <glyph glyph-name="less" unicode="&#x3c;" horiz-adv-x="416" 
d="M363 177c41 -16 29 -75 -14 -77c-6 -1 -13 1 -19 4c-54 20 -109 38 -160 63c-36 17 -71 37 -98 64c-15 15 -28 31 -36 50c-8 21 -9 48 1 69c16 34 50 58 83 75c38 21 79 36 119 52c23 9 45 21 70 25c48 6 67 -53 24 -76c-3 -2 -22 -5 -25 -7c-2 0 -16 -7 -19 -8
c-54 -23 -113 -40 -161 -75c-5 -3 -18 -14 -18 -21c-1 -5 8 -16 12 -20c26 -29 63 -48 99 -64c47 -20 95 -36 142 -54z" />
    <glyph glyph-name="equal" unicode="=" horiz-adv-x="355" 
d="M287 358c-6 -2 -13 -3 -19 -3c-66 1 -132 2 -198 4c-6 0 -12 1 -18 3c-42 16 -28 78 17 77c67 -2 134 -3 202 -4c44 0 56 -60 16 -77zM288 223c-42 -1 -85 -2 -127 -2c-34 0 -71 0 -101 15c-39 18 -29 75 14 76c10 1 19 -5 29 -8c28 -8 154 -2 184 -1c56 1 58 -79 1 -80z
" />
    <glyph glyph-name="greater" unicode="&#x3e;" horiz-adv-x="416" 
d="M85 103c-21 -8 -45 0 -54 21c-8 21 2 45 22 53c14 5 103 38 117 44c37 15 75 32 107 57c10 8 20 18 27 29c1 2 3 7 2 9c-5 16 -46 39 -62 47c-43 21 -89 35 -133 55c-6 3 -13 4 -19 5c-16 3 -29 16 -32 32c-6 28 18 50 46 47c26 -4 50 -17 74 -26c39 -16 78 -31 115 -50
c28 -15 56 -34 74 -59c13 -19 20 -45 16 -67s-17 -42 -32 -59c-27 -31 -64 -53 -100 -71c-54 -27 -112 -45 -168 -67z" />
    <glyph glyph-name="question" unicode="?" horiz-adv-x="338" 
d="M196 146c-6 -18 -26 -28 -45 -25c-23 5 -36 27 -31 50c14 56 27 113 43 169c14 50 30 101 42 152c8 35 16 72 13 109c-1 17 -9 35 -22 46c-11 10 -26 16 -41 18c-4 1 -15 4 -19 1s-10 -17 -12 -21c-9 -24 -13 -51 -11 -77c0 -3 3 -20 3 -23c-3 -48 -69 -54 -80 -7
c-6 28 -5 59 0 87c7 39 22 82 53 106c16 11 37 17 56 16c41 -1 83 -18 112 -47c13 -14 24 -30 31 -48c10 -27 12 -56 10 -85c-5 -65 -24 -130 -42 -193c-17 -59 -33 -118 -48 -178c-1 -6 -9 -43 -12 -50zM175 -155c-24 -10 -53 3 -62 28c-6 15 -10 57 -4 72
c13 32 56 32 73 1c25 0 45 -22 40 -47c-4 -18 -30 -47 -47 -54z" />
    <glyph glyph-name="at" unicode="@" horiz-adv-x="758" 
d="M607 -60c-67 -60 -161 -98 -250 -99c-37 0 -75 7 -109 21c-53 22 -99 64 -130 112c-54 81 -78 185 -76 282c2 70 19 143 55 203c39 66 99 122 168 157c41 20 87 31 132 30c71 -2 141 -36 188 -89c46 -53 72 -125 78 -195c6 -61 0 -125 -25 -181c-13 -32 -34 -64 -63 -83
c-17 -12 -40 -19 -61 -15s-41 20 -54 38c-19 25 -29 57 -38 88c-16 -31 -33 -63 -58 -87c-15 -16 -35 -29 -56 -33c-21 -5 -45 0 -64 12c-53 33 -66 133 -49 193c10 32 27 63 51 86c15 14 32 26 52 33c34 11 74 13 108 2c16 -5 32 -12 44 -24c13 -12 21 -29 27 -46
c10 -32 19 -66 24 -100v-23c1 -9 16 -43 22 -51c2 -4 4 -9 7 -7c8 4 14 12 19 20c11 17 20 35 25 55c18 67 14 144 -13 208c-12 29 -32 57 -56 77c-38 31 -94 48 -142 40c-29 -4 -58 -16 -83 -31c-57 -35 -106 -89 -132 -150c-28 -67 -32 -146 -20 -217
c10 -60 33 -121 71 -168c31 -37 76 -68 124 -75c69 -9 144 13 201 52c54 38 93 96 129 151c31 46 98 2 68 -43c-34 -51 -68 -103 -114 -143zM288 168c3 -3 9 1 12 4c16 12 26 30 37 47c21 36 35 77 55 114v2c-27 11 -63 10 -86 -8c-39 -30 -48 -102 -27 -147
c2 -4 5 -9 9 -12z" />
    <glyph glyph-name="A" unicode="A" horiz-adv-x="527" 
d="M105 29c-2 -52 -81 -51 -80 2c1 54 2 108 8 162c8 65 24 128 44 190c24 71 53 140 91 205c25 41 53 81 91 110c24 17 53 29 82 28c17 0 35 -5 49 -14c20 -12 34 -33 42 -54c15 -35 19 -74 22 -112c6 -61 7 -123 10 -184c3 -58 7 -117 12 -175c2 -25 13 -134 8 -158
c-2 -11 -10 -21 -20 -26c-27 -13 -58 4 -59 34c0 22 -1 43 -2 64c-98 1 -197 -1 -295 -6c-2 0 -2 -2 -2 -4c0 -20 -1 -41 -1 -62zM111 174c-1 -3 1 -3 3 -3c94 5 189 7 283 6c-5 57 -9 114 -12 170s-3 250 -34 296c-2 5 -6 7 -11 7c-18 3 -49 -25 -61 -39
c-18 -22 -34 -46 -48 -71c-57 -102 -96 -215 -115 -330c-2 -12 -4 -24 -5 -36z" />
    <glyph glyph-name="A" unicode="&#xc5;" horiz-adv-x="527" 
d="M105 29c-2 -52 -81 -51 -80 2c1 54 2 108 8 162c8 65 24 128 44 190c24 71 53 140 91 205c25 41 53 81 91 110c24 17 53 29 82 28c17 0 35 -5 49 -14c20 -12 34 -33 42 -54c15 -35 19 -74 22 -112c6 -61 7 -123 10 -184c3 -58 7 -117 12 -175c2 -25 13 -134 8 -158
c-2 -11 -10 -21 -20 -26c-27 -13 -58 4 -59 34c0 22 -1 43 -2 64c-98 1 -197 -1 -295 -6c-2 0 -2 -2 -2 -4c0 -20 -1 -41 -1 -62zM111 174c-1 -3 1 -3 3 -3c94 5 189 7 283 6c-5 57 -9 114 -12 170s-3 250 -34 296c-2 5 -6 7 -11 7c-18 3 -49 -25 -61 -39
c-18 -22 -34 -46 -48 -71c-57 -102 -96 -215 -115 -330c-2 -12 -4 -24 -5 -36z" />
    <glyph glyph-name="A" unicode="&#xc4;" horiz-adv-x="527" 
d="M105 29c-2 -52 -81 -51 -80 2c1 54 2 108 8 162c8 65 24 128 44 190c24 71 53 140 91 205c25 41 53 81 91 110c24 17 53 29 82 28c17 0 35 -5 49 -14c20 -12 34 -33 42 -54c15 -35 19 -74 22 -112c6 -61 7 -123 10 -184c3 -58 7 -117 12 -175c2 -25 13 -134 8 -158
c-2 -11 -10 -21 -20 -26c-27 -13 -58 4 -59 34c0 22 -1 43 -2 64c-98 1 -197 -1 -295 -6c-2 0 -2 -2 -2 -4c0 -20 -1 -41 -1 -62zM111 174c-1 -3 1 -3 3 -3c94 5 189 7 283 6c-5 57 -9 114 -12 170s-3 250 -34 296c-2 5 -6 7 -11 7c-18 3 -49 -25 -61 -39
c-18 -22 -34 -46 -48 -71c-57 -102 -96 -215 -115 -330c-2 -12 -4 -24 -5 -36z" />
    <glyph glyph-name="A" unicode="&#xc3;" horiz-adv-x="527" 
d="M105 29c-2 -52 -81 -51 -80 2c1 54 2 108 8 162c8 65 24 128 44 190c24 71 53 140 91 205c25 41 53 81 91 110c24 17 53 29 82 28c17 0 35 -5 49 -14c20 -12 34 -33 42 -54c15 -35 19 -74 22 -112c6 -61 7 -123 10 -184c3 -58 7 -117 12 -175c2 -25 13 -134 8 -158
c-2 -11 -10 -21 -20 -26c-27 -13 -58 4 -59 34c0 22 -1 43 -2 64c-98 1 -197 -1 -295 -6c-2 0 -2 -2 -2 -4c0 -20 -1 -41 -1 -62zM111 174c-1 -3 1 -3 3 -3c94 5 189 7 283 6c-5 57 -9 114 -12 170s-3 250 -34 296c-2 5 -6 7 -11 7c-18 3 -49 -25 -61 -39
c-18 -22 -34 -46 -48 -71c-57 -102 -96 -215 -115 -330c-2 -12 -4 -24 -5 -36z" />
    <glyph glyph-name="A" unicode="&#xc2;" horiz-adv-x="527" 
d="M105 29c-2 -52 -81 -51 -80 2c1 54 2 108 8 162c8 65 24 128 44 190c24 71 53 140 91 205c25 41 53 81 91 110c24 17 53 29 82 28c17 0 35 -5 49 -14c20 -12 34 -33 42 -54c15 -35 19 -74 22 -112c6 -61 7 -123 10 -184c3 -58 7 -117 12 -175c2 -25 13 -134 8 -158
c-2 -11 -10 -21 -20 -26c-27 -13 -58 4 -59 34c0 22 -1 43 -2 64c-98 1 -197 -1 -295 -6c-2 0 -2 -2 -2 -4c0 -20 -1 -41 -1 -62zM111 174c-1 -3 1 -3 3 -3c94 5 189 7 283 6c-5 57 -9 114 -12 170s-3 250 -34 296c-2 5 -6 7 -11 7c-18 3 -49 -25 -61 -39
c-18 -22 -34 -46 -48 -71c-57 -102 -96 -215 -115 -330c-2 -12 -4 -24 -5 -36z" />
    <glyph glyph-name="A" unicode="&#xc1;" horiz-adv-x="527" 
d="M105 29c-2 -52 -81 -51 -80 2c1 54 2 108 8 162c8 65 24 128 44 190c24 71 53 140 91 205c25 41 53 81 91 110c24 17 53 29 82 28c17 0 35 -5 49 -14c20 -12 34 -33 42 -54c15 -35 19 -74 22 -112c6 -61 7 -123 10 -184c3 -58 7 -117 12 -175c2 -25 13 -134 8 -158
c-2 -11 -10 -21 -20 -26c-27 -13 -58 4 -59 34c0 22 -1 43 -2 64c-98 1 -197 -1 -295 -6c-2 0 -2 -2 -2 -4c0 -20 -1 -41 -1 -62zM111 174c-1 -3 1 -3 3 -3c94 5 189 7 283 6c-5 57 -9 114 -12 170s-3 250 -34 296c-2 5 -6 7 -11 7c-18 3 -49 -25 -61 -39
c-18 -22 -34 -46 -48 -71c-57 -102 -96 -215 -115 -330c-2 -12 -4 -24 -5 -36z" />
    <glyph glyph-name="A" unicode="&#xc0;" horiz-adv-x="527" 
d="M105 29c-2 -52 -81 -51 -80 2c1 54 2 108 8 162c8 65 24 128 44 190c24 71 53 140 91 205c25 41 53 81 91 110c24 17 53 29 82 28c17 0 35 -5 49 -14c20 -12 34 -33 42 -54c15 -35 19 -74 22 -112c6 -61 7 -123 10 -184c3 -58 7 -117 12 -175c2 -25 13 -134 8 -158
c-2 -11 -10 -21 -20 -26c-27 -13 -58 4 -59 34c0 22 -1 43 -2 64c-98 1 -197 -1 -295 -6c-2 0 -2 -2 -2 -4c0 -20 -1 -41 -1 -62zM111 174c-1 -3 1 -3 3 -3c94 5 189 7 283 6c-5 57 -9 114 -12 170s-3 250 -34 296c-2 5 -6 7 -11 7c-18 3 -49 -25 -61 -39
c-18 -22 -34 -46 -48 -71c-57 -102 -96 -215 -115 -330c-2 -12 -4 -24 -5 -36z" />
    <glyph glyph-name="B" unicode="B" horiz-adv-x="483" 
d="M187 -2c-8 0 -39 0 -47 3c-16 5 -35 28 -36 45c0 1 -1 2 -1 4c-4 23 -12 156 -14 179c-7 102 -11 203 -20 305c-19 -4 -39 6 -45 24c-2 8 -1 16 0 24c5 26 17 52 33 72c54 66 188 92 267 60c35 -15 68 -41 90 -73c27 -40 41 -90 40 -138c0 -70 -25 -145 -71 -197
c-21 -23 -47 -42 -72 -59c27 -11 56 -24 73 -47c15 -20 19 -41 12 -64c-8 -28 -31 -51 -54 -68c-26 -21 -55 -38 -86 -50c-22 -10 -45 -18 -69 -20zM165 189c1 -18 9 -103 6 -120c18 0 37 5 54 13c36 15 72 34 96 64c2 2 6 8 6 10c-1 4 -9 8 -12 10c-28 17 -62 26 -95 27
c-11 0 -22 -2 -32 1c-24 8 -33 37 -17 57c7 7 15 12 23 15c36 17 72 34 103 58c20 15 38 35 51 57c50 82 50 202 -30 256c-24 16 -57 21 -86 19c-31 -2 -64 -9 -91 -24c-3 -2 -7 -4 -8 -7s1 -16 2 -19c11 -56 26 -361 30 -417z" />
    <glyph glyph-name="C" unicode="C" horiz-adv-x="467" 
d="M361 12c-55 -17 -119 -18 -172 4c-39 15 -73 45 -96 79c-34 50 -49 111 -55 171c-6 67 -2 135 11 201c11 54 27 107 53 155c16 29 38 57 66 76c41 28 92 34 140 18c21 -8 40 -21 57 -36c9 -8 39 -43 44 -54c12 -29 -12 -61 -42 -55c-3 1 -12 3 -13 6
c-11 18 -25 36 -42 47c-13 8 -24 18 -38 21c-20 4 -42 1 -59 -9c-76 -46 -105 -228 -104 -316c0 -45 5 -91 21 -134c9 -25 23 -50 42 -69c14 -14 33 -26 53 -32c29 -10 62 -10 92 -4c13 2 26 7 38 14c13 8 24 20 34 32c8 8 22 13 34 11c27 -5 39 -37 25 -60
c-4 -6 -24 -26 -29 -31c-17 -15 -38 -28 -60 -35z" />
    <glyph glyph-name="C" unicode="&#xc7;" horiz-adv-x="467" 
d="M361 12c-55 -17 -119 -18 -172 4c-39 15 -73 45 -96 79c-34 50 -49 111 -55 171c-6 67 -2 135 11 201c11 54 27 107 53 155c16 29 38 57 66 76c41 28 92 34 140 18c21 -8 40 -21 57 -36c9 -8 39 -43 44 -54c12 -29 -12 -61 -42 -55c-3 1 -12 3 -13 6
c-11 18 -25 36 -42 47c-13 8 -24 18 -38 21c-20 4 -42 1 -59 -9c-76 -46 -105 -228 -104 -316c0 -45 5 -91 21 -134c9 -25 23 -50 42 -69c14 -14 33 -26 53 -32c29 -10 62 -10 92 -4c13 2 26 7 38 14c13 8 24 20 34 32c8 8 22 13 34 11c27 -5 39 -37 25 -60
c-4 -6 -24 -26 -29 -31c-17 -15 -38 -28 -60 -35z" />
    <glyph glyph-name="D" unicode="D" horiz-adv-x="551" 
d="M206 0c-14 -1 -31 -1 -42 9c-9 7 -18 19 -17 31c2 22 0 44 -2 66c-5 104 -1 208 1 312c1 24 2 176 3 201c-18 -11 -34 -26 -46 -43c-6 -8 -12 -16 -15 -26c-1 -2 0 -4 -1 -7c-8 -39 -61 -50 -77 -14c-7 15 0 34 7 49c17 37 44 70 77 93c52 36 118 56 181 55
c29 -1 58 -6 84 -17c33 -15 62 -39 85 -66c34 -40 57 -91 71 -142c15 -57 14 -119 0 -176c-18 -73 -60 -141 -110 -197c-34 -39 -74 -73 -119 -97c-25 -13 -51 -28 -80 -31zM219 215c0 -45 2 -89 5 -134c22 10 43 22 62 36c46 34 83 80 113 129c28 44 47 97 49 149
c4 72 -19 149 -65 205c-18 22 -43 41 -70 49s-57 6 -85 1c-1 0 0 -3 0 -4c-4 -36 -3 -73 -4 -110c0 -39 -5 -282 -5 -321z" />
    <glyph glyph-name="E" unicode="E" horiz-adv-x="479" 
d="M327 3c-48 -5 -97 -6 -144 4c-32 6 -65 23 -86 48c-22 27 -34 63 -38 97c-6 42 -5 85 -3 127c2 43 26 299 29 342c0 1 1 3 -1 3c-5 0 -11 -1 -16 0c-45 10 -37 79 9 77c27 0 171 19 198 22c22 2 104 11 124 5c12 -4 22 -17 24 -29c4 -24 -13 -47 -37 -47
c-75 0 -151 -12 -226 -21c-7 -86 -15 -172 -23 -259c0 -2 1 -2 3 -2c51 8 102 16 153 22c9 1 18 -3 25 -9c22 -19 17 -54 -9 -66c-1 0 -6 -2 -7 -2c-56 -7 -112 -16 -169 -24c-2 -1 -2 -1 -2 -4c-2 -34 -4 -68 -1 -102c1 -22 4 -46 15 -66c6 -12 16 -22 28 -28
c21 -9 44 -12 67 -13c40 -2 80 1 120 6c20 3 41 6 61 13c35 12 65 -26 45 -58c-19 -29 -104 -33 -139 -36z" />
    <glyph glyph-name="E" unicode="&#xcb;" horiz-adv-x="479" 
d="M327 3c-48 -5 -97 -6 -144 4c-32 6 -65 23 -86 48c-22 27 -34 63 -38 97c-6 42 -5 85 -3 127c2 43 26 299 29 342c0 1 1 3 -1 3c-5 0 -11 -1 -16 0c-45 10 -37 79 9 77c27 0 171 19 198 22c22 2 104 11 124 5c12 -4 22 -17 24 -29c4 -24 -13 -47 -37 -47
c-75 0 -151 -12 -226 -21c-7 -86 -15 -172 -23 -259c0 -2 1 -2 3 -2c51 8 102 16 153 22c9 1 18 -3 25 -9c22 -19 17 -54 -9 -66c-1 0 -6 -2 -7 -2c-56 -7 -112 -16 -169 -24c-2 -1 -2 -1 -2 -4c-2 -34 -4 -68 -1 -102c1 -22 4 -46 15 -66c6 -12 16 -22 28 -28
c21 -9 44 -12 67 -13c40 -2 80 1 120 6c20 3 41 6 61 13c35 12 65 -26 45 -58c-19 -29 -104 -33 -139 -36z" />
    <glyph glyph-name="E" unicode="&#xca;" horiz-adv-x="479" 
d="M327 3c-48 -5 -97 -6 -144 4c-32 6 -65 23 -86 48c-22 27 -34 63 -38 97c-6 42 -5 85 -3 127c2 43 26 299 29 342c0 1 1 3 -1 3c-5 0 -11 -1 -16 0c-45 10 -37 79 9 77c27 0 171 19 198 22c22 2 104 11 124 5c12 -4 22 -17 24 -29c4 -24 -13 -47 -37 -47
c-75 0 -151 -12 -226 -21c-7 -86 -15 -172 -23 -259c0 -2 1 -2 3 -2c51 8 102 16 153 22c9 1 18 -3 25 -9c22 -19 17 -54 -9 -66c-1 0 -6 -2 -7 -2c-56 -7 -112 -16 -169 -24c-2 -1 -2 -1 -2 -4c-2 -34 -4 -68 -1 -102c1 -22 4 -46 15 -66c6 -12 16 -22 28 -28
c21 -9 44 -12 67 -13c40 -2 80 1 120 6c20 3 41 6 61 13c35 12 65 -26 45 -58c-19 -29 -104 -33 -139 -36z" />
    <glyph glyph-name="E" unicode="&#xc9;" horiz-adv-x="479" 
d="M327 3c-48 -5 -97 -6 -144 4c-32 6 -65 23 -86 48c-22 27 -34 63 -38 97c-6 42 -5 85 -3 127c2 43 26 299 29 342c0 1 1 3 -1 3c-5 0 -11 -1 -16 0c-45 10 -37 79 9 77c27 0 171 19 198 22c22 2 104 11 124 5c12 -4 22 -17 24 -29c4 -24 -13 -47 -37 -47
c-75 0 -151 -12 -226 -21c-7 -86 -15 -172 -23 -259c0 -2 1 -2 3 -2c51 8 102 16 153 22c9 1 18 -3 25 -9c22 -19 17 -54 -9 -66c-1 0 -6 -2 -7 -2c-56 -7 -112 -16 -169 -24c-2 -1 -2 -1 -2 -4c-2 -34 -4 -68 -1 -102c1 -22 4 -46 15 -66c6 -12 16 -22 28 -28
c21 -9 44 -12 67 -13c40 -2 80 1 120 6c20 3 41 6 61 13c35 12 65 -26 45 -58c-19 -29 -104 -33 -139 -36z" />
    <glyph glyph-name="E" unicode="&#xc8;" horiz-adv-x="479" 
d="M327 3c-48 -5 -97 -6 -144 4c-32 6 -65 23 -86 48c-22 27 -34 63 -38 97c-6 42 -5 85 -3 127c2 43 26 299 29 342c0 1 1 3 -1 3c-5 0 -11 -1 -16 0c-45 10 -37 79 9 77c27 0 171 19 198 22c22 2 104 11 124 5c12 -4 22 -17 24 -29c4 -24 -13 -47 -37 -47
c-75 0 -151 -12 -226 -21c-7 -86 -15 -172 -23 -259c0 -2 1 -2 3 -2c51 8 102 16 153 22c9 1 18 -3 25 -9c22 -19 17 -54 -9 -66c-1 0 -6 -2 -7 -2c-56 -7 -112 -16 -169 -24c-2 -1 -2 -1 -2 -4c-2 -34 -4 -68 -1 -102c1 -22 4 -46 15 -66c6 -12 16 -22 28 -28
c21 -9 44 -12 67 -13c40 -2 80 1 120 6c20 3 41 6 61 13c35 12 65 -26 45 -58c-19 -29 -104 -33 -139 -36z" />
    <glyph glyph-name="F" unicode="F" horiz-adv-x="491" 
d="M165 17c-15 -27 -54 -28 -72 -3c-12 16 -16 86 -17 107c-8 115 -10 229 -15 344c0 20 -6 140 -7 160c0 5 -7 9 -10 14c-4 8 -7 19 -5 29s9 19 17 25c7 5 29 11 37 10c31 -1 195 20 226 23c43 4 86 8 128 6c57 -1 58 -79 1 -79c-102 0 -202 -16 -303 -26c-2 0 -6 -5 -6 -7
c1 -31 10 -227 11 -258c63 8 127 18 190 24c14 1 30 -6 38 -18c17 -25 0 -58 -30 -61c-65 -7 -129 -17 -194 -25c1 -36 6 -204 16 -238c2 -9 0 -19 -5 -27z" />
    <glyph glyph-name="G" unicode="G" horiz-adv-x="549" 
d="M340 20c-55 -36 -132 -40 -189 -9c-21 12 -39 29 -53 48c-35 48 -47 111 -54 170c-8 69 -8 138 0 207c6 54 21 109 48 158c25 45 65 88 113 109c41 18 91 21 135 9c17 -4 35 -11 50 -21c21 -14 39 -34 50 -58c10 -21 14 -44 19 -67c4 -17 12 -35 6 -51
c-12 -27 -51 -31 -68 -6c-8 11 -20 79 -26 92c-8 19 -28 35 -48 40c-31 7 -66 6 -93 -8s-48 -38 -64 -63c-33 -53 -46 -118 -50 -180c-4 -65 -1 -131 11 -196c6 -33 15 -67 35 -94c30 -42 92 -47 135 -19c40 26 63 77 75 123c1 2 0 3 -3 3c-10 -1 -20 -1 -29 -2
s-18 -1 -25 2c-25 10 -32 41 -13 60c9 9 24 10 37 11c23 2 136 5 158 3c44 -4 46 -68 1 -72c-5 -1 -10 -1 -15 0c-3 0 -4 -1 -3 -3c2 -7 1 -14 1 -22c-1 -16 10 -107 11 -123c0 -4 1 -26 1 -30c-2 -37 -49 -51 -70 -21c-5 7 -7 15 -7 23c-1 22 -2 45 -4 67
c-18 -32 -42 -60 -72 -80z" />
    <glyph glyph-name="H" unicode="H" horiz-adv-x="565" 
d="M112 -6c-24 -10 -52 6 -53 33c-2 50 -4 101 -4 151c0 93 5 186 7 280c0 29 1 200 3 229c0 6 0 12 3 18c4 10 14 18 24 20c26 7 50 -11 49 -37c-2 -33 -3 -227 -3 -260c-2 -72 -5 -144 -6 -215c0 -1 1 -1 1 -2c22 -3 44 -5 66 -5c75 -3 150 -1 226 0c-3 72 2 144 4 215
c2 82 0 163 -1 244c0 8 0 46 1 53c9 39 66 39 75 1c1 -5 0 -11 0 -16c0 -29 2 -207 2 -236c-1 -85 -8 -170 -5 -256c1 -19 8 -131 8 -150c-1 -14 0 -29 -8 -40c-18 -27 -62 -19 -69 12c-1 4 -2 23 -1 28c2 25 0 50 -2 74c-99 -1 -199 -6 -297 5c-1 -15 3 -96 3 -110
c1 -17 -7 -30 -23 -36z" />
    <glyph glyph-name="I" unicode="I" horiz-adv-x="266" 
d="M85 -4c-36 -13 -69 25 -47 56c9 12 27 17 42 20c-7 126 3 252 5 377c1 24 1 164 2 187c0 2 -1 3 -3 3c-14 2 -31 4 -41 14c-22 22 -10 58 20 64c14 2 28 -4 42 -4c13 0 70 4 83 9c40 15 74 -32 43 -61c-14 -14 -37 -15 -57 -18c-2 -24 -2 -170 -2 -194
c-3 -123 -12 -246 -6 -368c10 0 44 -3 52 -8c7 -3 14 -8 18 -14c15 -22 2 -51 -24 -57c-14 -4 -29 4 -43 3c-14 0 -71 -5 -84 -9z" />
    <glyph glyph-name="I" unicode="&#xcf;" horiz-adv-x="266" 
d="M85 -4c-36 -13 -69 25 -47 56c9 12 27 17 42 20c-7 126 3 252 5 377c1 24 1 164 2 187c0 2 -1 3 -3 3c-14 2 -31 4 -41 14c-22 22 -10 58 20 64c14 2 28 -4 42 -4c13 0 70 4 83 9c40 15 74 -32 43 -61c-14 -14 -37 -15 -57 -18c-2 -24 -2 -170 -2 -194
c-3 -123 -12 -246 -6 -368c10 0 44 -3 52 -8c7 -3 14 -8 18 -14c15 -22 2 -51 -24 -57c-14 -4 -29 4 -43 3c-14 0 -71 -5 -84 -9z" />
    <glyph glyph-name="I" unicode="&#xce;" horiz-adv-x="266" 
d="M85 -4c-36 -13 -69 25 -47 56c9 12 27 17 42 20c-7 126 3 252 5 377c1 24 1 164 2 187c0 2 -1 3 -3 3c-14 2 -31 4 -41 14c-22 22 -10 58 20 64c14 2 28 -4 42 -4c13 0 70 4 83 9c40 15 74 -32 43 -61c-14 -14 -37 -15 -57 -18c-2 -24 -2 -170 -2 -194
c-3 -123 -12 -246 -6 -368c10 0 44 -3 52 -8c7 -3 14 -8 18 -14c15 -22 2 -51 -24 -57c-14 -4 -29 4 -43 3c-14 0 -71 -5 -84 -9z" />
    <glyph glyph-name="I" unicode="&#xcd;" horiz-adv-x="266" 
d="M85 -4c-36 -13 -69 25 -47 56c9 12 27 17 42 20c-7 126 3 252 5 377c1 24 1 164 2 187c0 2 -1 3 -3 3c-14 2 -31 4 -41 14c-22 22 -10 58 20 64c14 2 28 -4 42 -4c13 0 70 4 83 9c40 15 74 -32 43 -61c-14 -14 -37 -15 -57 -18c-2 -24 -2 -170 -2 -194
c-3 -123 -12 -246 -6 -368c10 0 44 -3 52 -8c7 -3 14 -8 18 -14c15 -22 2 -51 -24 -57c-14 -4 -29 4 -43 3c-14 0 -71 -5 -84 -9z" />
    <glyph glyph-name="I" unicode="&#xcc;" horiz-adv-x="266" 
d="M85 -4c-36 -13 -69 25 -47 56c9 12 27 17 42 20c-7 126 3 252 5 377c1 24 1 164 2 187c0 2 -1 3 -3 3c-14 2 -31 4 -41 14c-22 22 -10 58 20 64c14 2 28 -4 42 -4c13 0 70 4 83 9c40 15 74 -32 43 -61c-14 -14 -37 -15 -57 -18c-2 -24 -2 -170 -2 -194
c-3 -123 -12 -246 -6 -368c10 0 44 -3 52 -8c7 -3 14 -8 18 -14c15 -22 2 -51 -24 -57c-14 -4 -29 4 -43 3c-14 0 -71 -5 -84 -9z" />
    <glyph glyph-name="J" unicode="J" horiz-adv-x="467" 
d="M221 8c-32 -12 -70 -13 -103 -4c-15 4 -30 10 -41 20c-25 19 -41 48 -52 77c-4 11 -18 56 -18 68c0 42 56 55 73 15c2 -6 12 -43 14 -49c4 -12 19 -43 30 -49c19 -10 43 -11 64 -6c20 5 37 18 51 32c22 23 40 51 51 81c20 50 28 105 31 158c6 104 -1 209 -8 313
c-20 -4 -102 -20 -123 -16c-37 8 -42 61 -7 76c6 3 34 4 41 5c17 3 124 22 141 25c7 1 14 3 20 4c12 4 25 11 37 8c34 -7 40 -49 15 -72c-7 -5 -37 -14 -45 -16c-2 0 -4 -1 -4 -3c7 -99 13 -199 10 -298c-3 -73 -11 -148 -38 -216c-18 -43 -44 -85 -79 -116
c-18 -15 -38 -29 -60 -37z" />
    <glyph glyph-name="K" unicode="K" horiz-adv-x="525" 
d="M151 36c0 -33 -38 -51 -64 -30c-7 5 -13 14 -14 23c-13 87 -18 177 -19 265c-1 106 2 212 6 318c1 14 1 73 6 86c18 41 79 24 75 -21c-2 -31 -7 -212 -8 -244c0 -2 1 -2 3 0c33 39 68 77 103 115c56 60 113 120 171 179c30 31 82 -2 64 -42c-2 -5 -6 -10 -11 -14
c-80 -81 -158 -164 -234 -249c-20 -21 -38 -44 -58 -66c-2 -1 -2 -3 -1 -4c37 -42 79 -78 120 -115c54 -47 109 -94 171 -132c9 -6 46 -26 52 -35c21 -32 -12 -71 -47 -57c-20 8 -101 62 -118 75c-42 32 -82 67 -121 102c-32 29 -64 58 -94 88c1 -73 4 -146 14 -218
c1 -3 4 -21 4 -24z" />
    <glyph glyph-name="L" unicode="L" horiz-adv-x="397" 
d="M291 2c-38 -4 -77 -6 -115 -3c-22 1 -43 4 -63 11c-17 6 -34 16 -44 31c-10 16 -13 36 -14 54c-3 30 -4 61 -5 91c-2 86 -2 172 6 258c6 71 15 141 24 212c1 14 3 28 8 41c16 43 80 25 73 -20c0 -1 -3 -10 -3 -11c-2 -9 -7 -57 -8 -66c-9 -70 -18 -139 -22 -209
c-3 -47 -5 -261 5 -307c14 -7 30 -9 46 -10c30 -2 137 1 165 15c7 3 16 4 23 3c33 -7 42 -50 14 -69c-9 -6 -20 -9 -31 -12c-19 -5 -39 -7 -59 -9z" />
    <glyph glyph-name="M" unicode="M" horiz-adv-x="688" 
d="M663 2c8 -31 -25 -58 -55 -46c-10 4 -19 12 -22 22c-18 60 -26 122 -33 183c-7 57 -39 385 -50 442c-10 -24 -18 -48 -24 -73c-9 -35 -53 -247 -61 -282c-7 -29 -27 -128 -49 -149c-14 -15 -40 -18 -56 -7c-14 9 -22 25 -27 40c-11 34 -19 69 -27 104
c-10 42 -68 307 -78 350c-1 4 -2 -3 -3 -7c-19 -81 -28 -163 -37 -245c-10 -97 -22 -194 -24 -291c0 -7 0 -14 -3 -20c-19 -40 -78 -27 -78 18c0 44 4 88 8 132c8 83 16 167 26 250c10 86 23 173 53 254c6 16 13 33 26 44c21 18 50 17 69 -3c9 -10 15 -22 19 -35
c21 -56 86 -367 100 -425c9 39 57 272 68 311c16 55 50 147 108 147c19 0 39 -13 48 -29c13 -23 18 -49 23 -74c10 -58 43 -394 50 -452c7 -53 15 -107 29 -159z" />
    <glyph glyph-name="N" unicode="N" horiz-adv-x="613" 
d="M127 21c-7 -36 -53 -45 -75 -16c-9 12 -8 28 -8 43c0 56 4 113 7 169c4 64 23 390 37 453c3 13 7 27 15 39c16 23 47 29 70 13c15 -11 24 -29 32 -45c20 -43 34 -87 50 -131c30 -86 60 -173 96 -257c27 -64 57 -129 99 -184c2 -2 2 -1 2 1c27 102 29 210 26 316
c0 40 -7 284 -8 324c0 41 52 57 76 24c6 -7 8 -17 8 -26c0 -32 6 -228 7 -260c2 -90 4 -180 -5 -270c-5 -47 -12 -94 -25 -139c-6 -20 -13 -41 -27 -56c-13 -14 -36 -22 -54 -18c-16 4 -30 14 -42 25c-32 32 -56 72 -78 112c-73 135 -120 283 -171 427
c-6 -70 -32 -459 -31 -529c0 -5 0 -10 -1 -15z" />
    <glyph glyph-name="N" unicode="&#xd1;" horiz-adv-x="613" 
d="M127 21c-7 -36 -53 -45 -75 -16c-9 12 -8 28 -8 43c0 56 4 113 7 169c4 64 23 390 37 453c3 13 7 27 15 39c16 23 47 29 70 13c15 -11 24 -29 32 -45c20 -43 34 -87 50 -131c30 -86 60 -173 96 -257c27 -64 57 -129 99 -184c2 -2 2 -1 2 1c27 102 29 210 26 316
c0 40 -7 284 -8 324c0 41 52 57 76 24c6 -7 8 -17 8 -26c0 -32 6 -228 7 -260c2 -90 4 -180 -5 -270c-5 -47 -12 -94 -25 -139c-6 -20 -13 -41 -27 -56c-13 -14 -36 -22 -54 -18c-16 4 -30 14 -42 25c-32 32 -56 72 -78 112c-73 135 -120 283 -171 427
c-6 -70 -32 -459 -31 -529c0 -5 0 -10 -1 -15z" />
    <glyph glyph-name="O" unicode="O" horiz-adv-x="530" 
d="M344 1c-24 -11 -52 -13 -78 -9c-48 7 -95 35 -129 72c-48 53 -78 124 -93 195c-20 99 -13 208 25 302c17 44 43 89 80 119c23 19 52 35 81 41c45 9 95 -1 134 -26c53 -34 89 -95 110 -155c12 -35 22 -74 20 -111c-3 -45 -2 -90 -6 -134c-6 -52 -20 -104 -38 -153
c-14 -39 -33 -77 -60 -108c-13 -14 -29 -26 -46 -33zM262 65c17 -5 38 -8 55 1c11 6 20 15 27 25c13 18 22 37 30 57c14 32 24 65 32 99c1 5 8 34 8 39c2 10 7 66 7 76c1 8 -1 56 -1 63s1 40 -1 46c0 3 -2 5 -2 7c-5 23 -13 44 -22 65c-16 36 -39 72 -72 94
c-29 18 -72 22 -103 6c-29 -15 -51 -43 -67 -72c-39 -75 -53 -165 -45 -249c5 -47 17 -93 36 -137c17 -37 40 -74 74 -98c13 -9 28 -18 44 -22z" />
    <glyph glyph-name="O" unicode="&#xd8;" horiz-adv-x="530" 
d="M344 1c-24 -11 -52 -13 -78 -9c-48 7 -95 35 -129 72c-48 53 -78 124 -93 195c-20 99 -13 208 25 302c17 44 43 89 80 119c23 19 52 35 81 41c45 9 95 -1 134 -26c53 -34 89 -95 110 -155c12 -35 22 -74 20 -111c-3 -45 -2 -90 -6 -134c-6 -52 -20 -104 -38 -153
c-14 -39 -33 -77 -60 -108c-13 -14 -29 -26 -46 -33zM262 65c17 -5 38 -8 55 1c11 6 20 15 27 25c13 18 22 37 30 57c14 32 24 65 32 99c1 5 8 34 8 39c2 10 7 66 7 76c1 8 -1 56 -1 63s1 40 -1 46c0 3 -2 5 -2 7c-5 23 -13 44 -22 65c-16 36 -39 72 -72 94
c-29 18 -72 22 -103 6c-29 -15 -51 -43 -67 -72c-39 -75 -53 -165 -45 -249c5 -47 17 -93 36 -137c17 -37 40 -74 74 -98c13 -9 28 -18 44 -22z" />
    <glyph glyph-name="O" unicode="&#xd6;" horiz-adv-x="530" 
d="M344 1c-24 -11 -52 -13 -78 -9c-48 7 -95 35 -129 72c-48 53 -78 124 -93 195c-20 99 -13 208 25 302c17 44 43 89 80 119c23 19 52 35 81 41c45 9 95 -1 134 -26c53 -34 89 -95 110 -155c12 -35 22 -74 20 -111c-3 -45 -2 -90 -6 -134c-6 -52 -20 -104 -38 -153
c-14 -39 -33 -77 -60 -108c-13 -14 -29 -26 -46 -33zM262 65c17 -5 38 -8 55 1c11 6 20 15 27 25c13 18 22 37 30 57c14 32 24 65 32 99c1 5 8 34 8 39c2 10 7 66 7 76c1 8 -1 56 -1 63s1 40 -1 46c0 3 -2 5 -2 7c-5 23 -13 44 -22 65c-16 36 -39 72 -72 94
c-29 18 -72 22 -103 6c-29 -15 -51 -43 -67 -72c-39 -75 -53 -165 -45 -249c5 -47 17 -93 36 -137c17 -37 40 -74 74 -98c13 -9 28 -18 44 -22z" />
    <glyph glyph-name="O" unicode="&#xd5;" horiz-adv-x="530" 
d="M344 1c-24 -11 -52 -13 -78 -9c-48 7 -95 35 -129 72c-48 53 -78 124 -93 195c-20 99 -13 208 25 302c17 44 43 89 80 119c23 19 52 35 81 41c45 9 95 -1 134 -26c53 -34 89 -95 110 -155c12 -35 22 -74 20 -111c-3 -45 -2 -90 -6 -134c-6 -52 -20 -104 -38 -153
c-14 -39 -33 -77 -60 -108c-13 -14 -29 -26 -46 -33zM262 65c17 -5 38 -8 55 1c11 6 20 15 27 25c13 18 22 37 30 57c14 32 24 65 32 99c1 5 8 34 8 39c2 10 7 66 7 76c1 8 -1 56 -1 63s1 40 -1 46c0 3 -2 5 -2 7c-5 23 -13 44 -22 65c-16 36 -39 72 -72 94
c-29 18 -72 22 -103 6c-29 -15 -51 -43 -67 -72c-39 -75 -53 -165 -45 -249c5 -47 17 -93 36 -137c17 -37 40 -74 74 -98c13 -9 28 -18 44 -22z" />
    <glyph glyph-name="O" unicode="&#xd4;" horiz-adv-x="530" 
d="M344 1c-24 -11 -52 -13 -78 -9c-48 7 -95 35 -129 72c-48 53 -78 124 -93 195c-20 99 -13 208 25 302c17 44 43 89 80 119c23 19 52 35 81 41c45 9 95 -1 134 -26c53 -34 89 -95 110 -155c12 -35 22 -74 20 -111c-3 -45 -2 -90 -6 -134c-6 -52 -20 -104 -38 -153
c-14 -39 -33 -77 -60 -108c-13 -14 -29 -26 -46 -33zM262 65c17 -5 38 -8 55 1c11 6 20 15 27 25c13 18 22 37 30 57c14 32 24 65 32 99c1 5 8 34 8 39c2 10 7 66 7 76c1 8 -1 56 -1 63s1 40 -1 46c0 3 -2 5 -2 7c-5 23 -13 44 -22 65c-16 36 -39 72 -72 94
c-29 18 -72 22 -103 6c-29 -15 -51 -43 -67 -72c-39 -75 -53 -165 -45 -249c5 -47 17 -93 36 -137c17 -37 40 -74 74 -98c13 -9 28 -18 44 -22z" />
    <glyph glyph-name="O" unicode="&#xd3;" horiz-adv-x="530" 
d="M344 1c-24 -11 -52 -13 -78 -9c-48 7 -95 35 -129 72c-48 53 -78 124 -93 195c-20 99 -13 208 25 302c17 44 43 89 80 119c23 19 52 35 81 41c45 9 95 -1 134 -26c53 -34 89 -95 110 -155c12 -35 22 -74 20 -111c-3 -45 -2 -90 -6 -134c-6 -52 -20 -104 -38 -153
c-14 -39 -33 -77 -60 -108c-13 -14 -29 -26 -46 -33zM262 65c17 -5 38 -8 55 1c11 6 20 15 27 25c13 18 22 37 30 57c14 32 24 65 32 99c1 5 8 34 8 39c2 10 7 66 7 76c1 8 -1 56 -1 63s1 40 -1 46c0 3 -2 5 -2 7c-5 23 -13 44 -22 65c-16 36 -39 72 -72 94
c-29 18 -72 22 -103 6c-29 -15 -51 -43 -67 -72c-39 -75 -53 -165 -45 -249c5 -47 17 -93 36 -137c17 -37 40 -74 74 -98c13 -9 28 -18 44 -22z" />
    <glyph glyph-name="O" unicode="&#xd2;" horiz-adv-x="530" 
d="M344 1c-24 -11 -52 -13 -78 -9c-48 7 -95 35 -129 72c-48 53 -78 124 -93 195c-20 99 -13 208 25 302c17 44 43 89 80 119c23 19 52 35 81 41c45 9 95 -1 134 -26c53 -34 89 -95 110 -155c12 -35 22 -74 20 -111c-3 -45 -2 -90 -6 -134c-6 -52 -20 -104 -38 -153
c-14 -39 -33 -77 -60 -108c-13 -14 -29 -26 -46 -33zM262 65c17 -5 38 -8 55 1c11 6 20 15 27 25c13 18 22 37 30 57c14 32 24 65 32 99c1 5 8 34 8 39c2 10 7 66 7 76c1 8 -1 56 -1 63s1 40 -1 46c0 3 -2 5 -2 7c-5 23 -13 44 -22 65c-16 36 -39 72 -72 94
c-29 18 -72 22 -103 6c-29 -15 -51 -43 -67 -72c-39 -75 -53 -165 -45 -249c5 -47 17 -93 36 -137c17 -37 40 -74 74 -98c13 -9 28 -18 44 -22z" />
    <glyph glyph-name="P" unicode="P" horiz-adv-x="501" 
d="M191 21c-15 -36 -69 -30 -74 9c-13 120 -4 241 -2 362c1 72 1 145 0 218c-9 -6 -16 -14 -23 -22c-1 -10 -5 -21 -12 -29c-22 -22 -59 -10 -66 20c-1 9 3 34 6 42c4 9 11 17 17 24c40 45 102 72 162 78c46 6 94 3 137 -14c25 -10 48 -25 67 -43c45 -44 70 -110 74 -172
c5 -71 -18 -145 -51 -209c-29 -54 -67 -106 -117 -140c-35 -23 -78 -34 -120 -38c0 -15 9 -72 2 -86zM193 579c2 -130 -3 -260 -5 -391c0 -3 4 -2 8 -1c19 2 39 7 57 16c33 17 60 48 81 79c26 40 46 85 57 131c10 40 13 85 0 125c-12 36 -35 74 -69 92
c-38 20 -85 20 -127 13c-2 -21 -2 -42 -2 -64z" />
    <glyph glyph-name="Q" unicode="Q" horiz-adv-x="544" 
d="M503 9c27 -29 2 -75 -36 -68c-24 5 -74 63 -90 80c-23 -16 -53 -26 -81 -26c-50 1 -100 23 -138 55c-46 38 -77 94 -96 150c-38 108 -40 223 -5 332c20 61 56 122 108 159c29 22 68 33 104 33c35 0 71 -10 100 -28c28 -17 52 -41 70 -68c23 -33 39 -70 51 -108
c9 -28 15 -59 13 -88c-3 -52 -1 -104 -9 -155c-5 -34 -14 -67 -25 -100c-10 -31 -22 -63 -39 -92c-1 -2 -1 -3 0 -4c18 -19 37 -38 55 -57c2 -2 16 -13 18 -15zM203 106c30 -28 89 -54 124 -33c-6 7 -12 14 -19 19c-14 12 -16 37 -6 52c19 28 59 30 76 1
c26 60 43 124 49 189c2 20 3 113 0 132c-1 3 1 6 0 8s-2 3 -3 5c-5 23 -13 45 -22 66c-13 28 -29 55 -52 76c-14 13 -31 23 -49 29c-20 5 -42 6 -61 0c-30 -8 -55 -32 -72 -58c-33 -48 -51 -108 -58 -166c-9 -74 1 -153 29 -222c15 -36 36 -71 64 -98z" />
    <glyph glyph-name="R" unicode="R" horiz-adv-x="559" 
d="M491 -14c-8 -1 -16 0 -23 3c-43 15 -87 31 -130 46c-18 5 -114 36 -130 43c-2 1 -1 -1 -1 -2c2 -17 6 -36 0 -52c-15 -40 -74 -30 -73 13v20c-19 176 -22 353 -18 530c-12 -16 -24 -34 -26 -54c0 -10 1 -20 -3 -29c-13 -35 -64 -30 -71 6c-2 7 0 37 1 44
c7 33 27 64 49 90s50 47 81 61c51 23 113 31 167 17c80 -21 155 -82 190 -156c25 -53 29 -117 18 -174c-15 -72 -51 -143 -102 -195c-31 -31 -70 -54 -109 -73c-2 -1 -1 -1 1 -2c62 -20 123 -42 184 -64c36 -12 32 -64 -5 -72zM190 502c-1 -116 1 -231 9 -346
c0 -1 0 -4 1 -3c13 8 87 43 100 49c32 17 63 40 85 69c34 45 58 99 66 155c5 39 0 81 -19 116c-26 50 -78 92 -132 106c-34 9 -72 7 -105 -5c-1 0 -1 -4 -2 -5c-2 -46 -2 -91 -3 -136z" />
    <glyph glyph-name="S" unicode="S" horiz-adv-x="491" 
d="M353 83c-42 -72 -154 -102 -231 -71c-13 6 -26 14 -37 23c-22 18 -34 44 -47 69c-3 7 -8 13 -10 21c-9 45 52 66 77 27c13 -19 19 -45 38 -59c28 -22 86 -11 115 8c15 10 34 31 29 49c-8 24 -78 70 -99 86c-39 30 -76 68 -99 113c-28 56 -36 123 -30 185
c4 39 15 80 36 113c22 34 59 60 98 73c49 16 105 14 153 -6c23 -9 46 -24 64 -42c27 -27 45 -64 55 -101c7 -29 8 -60 4 -89c-2 -19 -11 -36 -14 -54c-1 -9 -7 -18 -14 -24c-25 -19 -61 -7 -68 23c-4 23 11 45 14 68c5 34 -3 72 -22 102c-30 46 -95 66 -148 46
c-16 -7 -33 -15 -44 -29c-23 -27 -31 -66 -32 -102c-2 -52 7 -109 36 -152c30 -43 78 -71 120 -104c25 -19 51 -41 64 -70c7 -13 10 -29 10 -44c0 -20 -7 -41 -18 -59z" />
    <glyph glyph-name="T" unicode="T" horiz-adv-x="345" 
d="M200 32c-1 -44 -61 -51 -71 -7c-2 10 -8 65 -9 75c-9 112 -10 224 -7 336c0 26 4 184 6 210c-19 0 -38 0 -57 -1c-11 -1 -22 0 -32 4c-9 3 -17 12 -21 21c-9 27 12 55 40 50c6 -1 13 0 19 0c51 3 102 -2 153 -3c30 -1 61 1 91 -3c46 -7 43 -74 -3 -74c-3 0 -22 2 -25 2
c-30 1 -60 0 -90 1c-2 0 -4 0 -4 -2c-1 -33 -6 -229 -7 -262c-1 -107 0 -215 14 -321c0 -4 3 -23 3 -26z" />
    <glyph glyph-name="U" unicode="U" horiz-adv-x="567" 
d="M336 5c-22 -6 -47 -6 -70 -1c-42 9 -82 32 -113 62c-52 52 -80 127 -94 199c-26 136 -13 277 -12 415c1 59 83 59 82 1c0 -43 0 -87 -2 -130c-3 -100 -5 -202 19 -299c8 -32 20 -65 38 -93c28 -44 92 -89 141 -70c23 9 41 30 55 51c21 32 36 68 44 105
c12 51 15 104 16 156c3 101 -1 201 -4 302c-2 59 79 61 82 3c3 -110 7 -219 3 -328c-2 -72 -10 -145 -36 -212c-17 -45 -43 -89 -78 -122c-20 -18 -45 -32 -71 -39z" />
    <glyph glyph-name="U" unicode="&#xdc;" horiz-adv-x="567" 
d="M336 5c-22 -6 -47 -6 -70 -1c-42 9 -82 32 -113 62c-52 52 -80 127 -94 199c-26 136 -13 277 -12 415c1 59 83 59 82 1c0 -43 0 -87 -2 -130c-3 -100 -5 -202 19 -299c8 -32 20 -65 38 -93c28 -44 92 -89 141 -70c23 9 41 30 55 51c21 32 36 68 44 105
c12 51 15 104 16 156c3 101 -1 201 -4 302c-2 59 79 61 82 3c3 -110 7 -219 3 -328c-2 -72 -10 -145 -36 -212c-17 -45 -43 -89 -78 -122c-20 -18 -45 -32 -71 -39z" />
    <glyph glyph-name="U" unicode="&#xdb;" horiz-adv-x="567" 
d="M336 5c-22 -6 -47 -6 -70 -1c-42 9 -82 32 -113 62c-52 52 -80 127 -94 199c-26 136 -13 277 -12 415c1 59 83 59 82 1c0 -43 0 -87 -2 -130c-3 -100 -5 -202 19 -299c8 -32 20 -65 38 -93c28 -44 92 -89 141 -70c23 9 41 30 55 51c21 32 36 68 44 105
c12 51 15 104 16 156c3 101 -1 201 -4 302c-2 59 79 61 82 3c3 -110 7 -219 3 -328c-2 -72 -10 -145 -36 -212c-17 -45 -43 -89 -78 -122c-20 -18 -45 -32 -71 -39z" />
    <glyph glyph-name="U" unicode="&#xda;" horiz-adv-x="567" 
d="M336 5c-22 -6 -47 -6 -70 -1c-42 9 -82 32 -113 62c-52 52 -80 127 -94 199c-26 136 -13 277 -12 415c1 59 83 59 82 1c0 -43 0 -87 -2 -130c-3 -100 -5 -202 19 -299c8 -32 20 -65 38 -93c28 -44 92 -89 141 -70c23 9 41 30 55 51c21 32 36 68 44 105
c12 51 15 104 16 156c3 101 -1 201 -4 302c-2 59 79 61 82 3c3 -110 7 -219 3 -328c-2 -72 -10 -145 -36 -212c-17 -45 -43 -89 -78 -122c-20 -18 -45 -32 -71 -39z" />
    <glyph glyph-name="U" unicode="&#xd9;" horiz-adv-x="567" 
d="M336 5c-22 -6 -47 -6 -70 -1c-42 9 -82 32 -113 62c-52 52 -80 127 -94 199c-26 136 -13 277 -12 415c1 59 83 59 82 1c0 -43 0 -87 -2 -130c-3 -100 -5 -202 19 -299c8 -32 20 -65 38 -93c28 -44 92 -89 141 -70c23 9 41 30 55 51c21 32 36 68 44 105
c12 51 15 104 16 156c3 101 -1 201 -4 302c-2 59 79 61 82 3c3 -110 7 -219 3 -328c-2 -72 -10 -145 -36 -212c-17 -45 -43 -89 -78 -122c-20 -18 -45 -32 -71 -39z" />
    <glyph glyph-name="V" unicode="V" horiz-adv-x="529" 
d="M246 0c-17 -7 -41 1 -54 13c-11 10 -19 24 -26 37c-13 26 -21 54 -29 82c-40 136 -63 276 -91 414c-3 19 -25 116 -26 135c-2 41 39 69 70 43c6 -5 5 -36 9 -43c1 -2 1 -4 1 -5c3 -14 20 -95 22 -108c20 -98 37 -197 60 -294c13 -56 25 -112 45 -166c1 -3 2 0 3 3
c77 171 115 358 191 529c5 10 25 58 32 67c31 38 87 2 66 -43c-24 -52 -48 -105 -68 -160c-42 -116 -74 -236 -119 -352c-15 -39 -30 -78 -50 -115c-8 -15 -21 -30 -36 -37z" />
    <glyph glyph-name="W" unicode="W" horiz-adv-x="786" 
d="M623 -7c-34 -30 -80 -2 -106 35c-20 29 -33 62 -44 96c-39 113 -61 231 -82 348c-32 -109 -54 -221 -72 -333c-4 -26 -8 -51 -14 -77c-5 -18 -12 -37 -26 -50c-15 -13 -37 -17 -55 -9c-22 10 -38 31 -51 52c-36 64 -54 137 -72 208c-28 115 -52 233 -70 351
c-2 13 -13 69 -9 83c7 30 45 40 67 18c9 -9 13 -25 13 -38c2 -33 33 -199 39 -231c14 -67 28 -133 45 -199c13 -47 26 -94 47 -138c25 137 47 276 90 408c9 28 18 57 38 79c23 25 63 21 81 -8c15 -25 19 -55 24 -84c21 -112 40 -226 74 -335c10 -32 21 -64 39 -93
c20 65 34 132 47 198c15 73 28 146 36 219c5 47 7 93 8 140c1 30 1 60 7 90c7 34 52 44 72 15c6 -9 7 -21 5 -32c-4 -21 -4 -43 -5 -65c-1 -47 -2 -94 -7 -140c-8 -85 -23 -169 -40 -253c-14 -68 -29 -136 -50 -201c-7 -20 -14 -40 -29 -54z" />
    <glyph glyph-name="X" unicode="X" horiz-adv-x="435" 
d="M158 10c-19 -30 -67 -19 -70 16c-1 7 -1 14 3 20c15 29 82 196 95 227c-40 85 -78 171 -115 257c-17 40 -35 80 -50 120c-5 14 -12 29 -9 43c5 28 39 40 61 22c5 -4 10 -9 12 -15c14 -47 119 -284 139 -328c19 45 105 279 117 326c1 7 3 13 6 18c24 34 74 13 70 -28
c-1 -8 -14 -44 -16 -52c-41 -120 -85 -240 -131 -358c-1 -2 0 -4 0 -6c30 -62 60 -124 91 -185c3 -6 19 -34 20 -41c8 -37 -39 -62 -65 -34c-5 6 -9 13 -13 20c-10 18 -64 128 -73 147c-10 -25 -58 -147 -72 -169z" />
    <glyph glyph-name="Y" unicode="Y" horiz-adv-x="579" 
d="M154 2c-16 -3 -33 -3 -50 -2c-25 3 -51 18 -64 39c-12 21 -15 47 -17 72c0 8 3 17 9 24c20 24 58 14 67 -16c4 -14 -2 -31 7 -41c5 -6 20 -4 27 -3c25 4 47 19 66 35c36 32 66 71 91 112c-16 7 -33 15 -47 25c-27 20 -50 45 -70 71c-31 39 -56 83 -73 130
c-21 58 -29 121 -40 182c-3 21 -9 43 -4 63c10 45 76 38 76 -8c0 -4 -1 -8 -1 -13c3 -24 25 -146 32 -170c13 -47 37 -93 67 -133c19 -26 42 -53 71 -69c8 -5 18 -8 27 -12c38 73 71 148 101 224c26 65 51 130 65 198c2 5 3 11 7 16c20 32 71 17 70 -21
c0 -38 -55 -183 -69 -219c-29 -71 -60 -142 -95 -211c-31 -61 -66 -121 -110 -174c-38 -44 -86 -87 -143 -99z" />
    <glyph glyph-name="Y" unicode="&#x178;" horiz-adv-x="579" 
d="M154 2c-16 -3 -33 -3 -50 -2c-25 3 -51 18 -64 39c-12 21 -15 47 -17 72c0 8 3 17 9 24c20 24 58 14 67 -16c4 -14 -2 -31 7 -41c5 -6 20 -4 27 -3c25 4 47 19 66 35c36 32 66 71 91 112c-16 7 -33 15 -47 25c-27 20 -50 45 -70 71c-31 39 -56 83 -73 130
c-21 58 -29 121 -40 182c-3 21 -9 43 -4 63c10 45 76 38 76 -8c0 -4 -1 -8 -1 -13c3 -24 25 -146 32 -170c13 -47 37 -93 67 -133c19 -26 42 -53 71 -69c8 -5 18 -8 27 -12c38 73 71 148 101 224c26 65 51 130 65 198c2 5 3 11 7 16c20 32 71 17 70 -21
c0 -38 -55 -183 -69 -219c-29 -71 -60 -142 -95 -211c-31 -61 -66 -121 -110 -174c-38 -44 -86 -87 -143 -99z" />
    <glyph glyph-name="Y" unicode="&#xdd;" horiz-adv-x="579" 
d="M154 2c-16 -3 -33 -3 -50 -2c-25 3 -51 18 -64 39c-12 21 -15 47 -17 72c0 8 3 17 9 24c20 24 58 14 67 -16c4 -14 -2 -31 7 -41c5 -6 20 -4 27 -3c25 4 47 19 66 35c36 32 66 71 91 112c-16 7 -33 15 -47 25c-27 20 -50 45 -70 71c-31 39 -56 83 -73 130
c-21 58 -29 121 -40 182c-3 21 -9 43 -4 63c10 45 76 38 76 -8c0 -4 -1 -8 -1 -13c3 -24 25 -146 32 -170c13 -47 37 -93 67 -133c19 -26 42 -53 71 -69c8 -5 18 -8 27 -12c38 73 71 148 101 224c26 65 51 130 65 198c2 5 3 11 7 16c20 32 71 17 70 -21
c0 -38 -55 -183 -69 -219c-29 -71 -60 -142 -95 -211c-31 -61 -66 -121 -110 -174c-38 -44 -86 -87 -143 -99z" />
    <glyph glyph-name="Z" unicode="Z" horiz-adv-x="574" 
d="M524 73c54 0 55 -75 0 -78c-8 0 -57 3 -65 3c-59 3 -117 5 -176 5c-40 0 -198 -10 -235 6c-21 10 -34 29 -34 50c0 25 14 48 26 69c14 26 30 51 46 75c56 82 116 161 182 234c46 52 96 100 141 152c11 13 21 26 30 40c2 3 5 6 2 6c-43 9 -255 13 -300 12
c-14 0 -29 -1 -43 -3c-56 -9 -71 67 -16 76c36 7 73 5 109 5c40 -1 231 -5 270 -14c13 -3 26 -8 37 -15c14 -9 25 -25 28 -42c5 -30 -14 -62 -33 -87c-32 -42 -70 -80 -107 -119c-92 -97 -177 -202 -249 -314c-12 -18 -24 -36 -33 -55c50 -2 99 1 149 1c54 1 109 0 163 -2
c13 -1 94 -4 108 -5z" />
    <glyph glyph-name="underscore" unicode="_" horiz-adv-x="95" 
d="M571 -80c-60 0 -419 -2 -479 0c-17 0 -73 3 -87 13c-33 21 -18 71 21 73c5 0 31 -4 36 -5c66 -4 444 -1 510 -1c36 0 56 -43 30 -68c-8 -8 -20 -12 -31 -12z" />
    <glyph glyph-name="a" unicode="a" horiz-adv-x="432" 
d="M335 25c-26 -22 -65 -31 -99 -28c-36 3 -74 17 -98 44c-19 23 -31 54 -32 84c-2 49 17 100 46 138c29 37 71 65 114 83c15 6 30 11 46 13c2 0 2 1 2 3c0 24 -1 49 -6 72c-4 18 -12 36 -25 48c-11 10 -29 15 -44 13c-13 -1 -25 -7 -36 -14c-18 -12 -32 -27 -46 -42
c-12 -14 -57 -78 -64 -95c-4 -11 -13 -22 -24 -27c-23 -11 -50 4 -55 28c-2 11 1 23 6 32c25 47 55 92 92 130c28 30 64 56 103 65c57 14 118 -12 148 -63c16 -26 24 -58 28 -89c6 -58 3 -117 2 -176c-1 -56 -1 -112 3 -168c1 -11 2 -22 -2 -32c-10 -23 -37 -31 -59 -19z
M219 81c18 -7 41 -7 59 1c4 2 18 12 22 15c4 4 14 12 14 18c-4 54 -1 108 0 163c-36 -10 -71 -30 -95 -59c-15 -19 -26 -42 -31 -66c-2 -14 -4 -29 0 -42c5 -13 17 -24 31 -30z" />
    <glyph glyph-name="a" unicode="&#xe5;" horiz-adv-x="432" 
d="M335 25c-26 -22 -65 -31 -99 -28c-36 3 -74 17 -98 44c-19 23 -31 54 -32 84c-2 49 17 100 46 138c29 37 71 65 114 83c15 6 30 11 46 13c2 0 2 1 2 3c0 24 -1 49 -6 72c-4 18 -12 36 -25 48c-11 10 -29 15 -44 13c-13 -1 -25 -7 -36 -14c-18 -12 -32 -27 -46 -42
c-12 -14 -57 -78 -64 -95c-4 -11 -13 -22 -24 -27c-23 -11 -50 4 -55 28c-2 11 1 23 6 32c25 47 55 92 92 130c28 30 64 56 103 65c57 14 118 -12 148 -63c16 -26 24 -58 28 -89c6 -58 3 -117 2 -176c-1 -56 -1 -112 3 -168c1 -11 2 -22 -2 -32c-10 -23 -37 -31 -59 -19z
M219 81c18 -7 41 -7 59 1c4 2 18 12 22 15c4 4 14 12 14 18c-4 54 -1 108 0 163c-36 -10 -71 -30 -95 -59c-15 -19 -26 -42 -31 -66c-2 -14 -4 -29 0 -42c5 -13 17 -24 31 -30z" />
    <glyph glyph-name="a" unicode="&#xe4;" horiz-adv-x="432" 
d="M335 25c-26 -22 -65 -31 -99 -28c-36 3 -74 17 -98 44c-19 23 -31 54 -32 84c-2 49 17 100 46 138c29 37 71 65 114 83c15 6 30 11 46 13c2 0 2 1 2 3c0 24 -1 49 -6 72c-4 18 -12 36 -25 48c-11 10 -29 15 -44 13c-13 -1 -25 -7 -36 -14c-18 -12 -32 -27 -46 -42
c-12 -14 -57 -78 -64 -95c-4 -11 -13 -22 -24 -27c-23 -11 -50 4 -55 28c-2 11 1 23 6 32c25 47 55 92 92 130c28 30 64 56 103 65c57 14 118 -12 148 -63c16 -26 24 -58 28 -89c6 -58 3 -117 2 -176c-1 -56 -1 -112 3 -168c1 -11 2 -22 -2 -32c-10 -23 -37 -31 -59 -19z
M219 81c18 -7 41 -7 59 1c4 2 18 12 22 15c4 4 14 12 14 18c-4 54 -1 108 0 163c-36 -10 -71 -30 -95 -59c-15 -19 -26 -42 -31 -66c-2 -14 -4 -29 0 -42c5 -13 17 -24 31 -30z" />
    <glyph glyph-name="a" unicode="&#xe3;" horiz-adv-x="432" 
d="M335 25c-26 -22 -65 -31 -99 -28c-36 3 -74 17 -98 44c-19 23 -31 54 -32 84c-2 49 17 100 46 138c29 37 71 65 114 83c15 6 30 11 46 13c2 0 2 1 2 3c0 24 -1 49 -6 72c-4 18 -12 36 -25 48c-11 10 -29 15 -44 13c-13 -1 -25 -7 -36 -14c-18 -12 -32 -27 -46 -42
c-12 -14 -57 -78 -64 -95c-4 -11 -13 -22 -24 -27c-23 -11 -50 4 -55 28c-2 11 1 23 6 32c25 47 55 92 92 130c28 30 64 56 103 65c57 14 118 -12 148 -63c16 -26 24 -58 28 -89c6 -58 3 -117 2 -176c-1 -56 -1 -112 3 -168c1 -11 2 -22 -2 -32c-10 -23 -37 -31 -59 -19z
M219 81c18 -7 41 -7 59 1c4 2 18 12 22 15c4 4 14 12 14 18c-4 54 -1 108 0 163c-36 -10 -71 -30 -95 -59c-15 -19 -26 -42 -31 -66c-2 -14 -4 -29 0 -42c5 -13 17 -24 31 -30z" />
    <glyph glyph-name="a" unicode="&#xe2;" horiz-adv-x="432" 
d="M335 25c-26 -22 -65 -31 -99 -28c-36 3 -74 17 -98 44c-19 23 -31 54 -32 84c-2 49 17 100 46 138c29 37 71 65 114 83c15 6 30 11 46 13c2 0 2 1 2 3c0 24 -1 49 -6 72c-4 18 -12 36 -25 48c-11 10 -29 15 -44 13c-13 -1 -25 -7 -36 -14c-18 -12 -32 -27 -46 -42
c-12 -14 -57 -78 -64 -95c-4 -11 -13 -22 -24 -27c-23 -11 -50 4 -55 28c-2 11 1 23 6 32c25 47 55 92 92 130c28 30 64 56 103 65c57 14 118 -12 148 -63c16 -26 24 -58 28 -89c6 -58 3 -117 2 -176c-1 -56 -1 -112 3 -168c1 -11 2 -22 -2 -32c-10 -23 -37 -31 -59 -19z
M219 81c18 -7 41 -7 59 1c4 2 18 12 22 15c4 4 14 12 14 18c-4 54 -1 108 0 163c-36 -10 -71 -30 -95 -59c-15 -19 -26 -42 -31 -66c-2 -14 -4 -29 0 -42c5 -13 17 -24 31 -30z" />
    <glyph glyph-name="a" unicode="&#xe1;" horiz-adv-x="432" 
d="M335 25c-26 -22 -65 -31 -99 -28c-36 3 -74 17 -98 44c-19 23 -31 54 -32 84c-2 49 17 100 46 138c29 37 71 65 114 83c15 6 30 11 46 13c2 0 2 1 2 3c0 24 -1 49 -6 72c-4 18 -12 36 -25 48c-11 10 -29 15 -44 13c-13 -1 -25 -7 -36 -14c-18 -12 -32 -27 -46 -42
c-12 -14 -57 -78 -64 -95c-4 -11 -13 -22 -24 -27c-23 -11 -50 4 -55 28c-2 11 1 23 6 32c25 47 55 92 92 130c28 30 64 56 103 65c57 14 118 -12 148 -63c16 -26 24 -58 28 -89c6 -58 3 -117 2 -176c-1 -56 -1 -112 3 -168c1 -11 2 -22 -2 -32c-10 -23 -37 -31 -59 -19z
M219 81c18 -7 41 -7 59 1c4 2 18 12 22 15c4 4 14 12 14 18c-4 54 -1 108 0 163c-36 -10 -71 -30 -95 -59c-15 -19 -26 -42 -31 -66c-2 -14 -4 -29 0 -42c5 -13 17 -24 31 -30z" />
    <glyph glyph-name="a" unicode="&#xe0;" horiz-adv-x="432" 
d="M335 25c-26 -22 -65 -31 -99 -28c-36 3 -74 17 -98 44c-19 23 -31 54 -32 84c-2 49 17 100 46 138c29 37 71 65 114 83c15 6 30 11 46 13c2 0 2 1 2 3c0 24 -1 49 -6 72c-4 18 -12 36 -25 48c-11 10 -29 15 -44 13c-13 -1 -25 -7 -36 -14c-18 -12 -32 -27 -46 -42
c-12 -14 -57 -78 -64 -95c-4 -11 -13 -22 -24 -27c-23 -11 -50 4 -55 28c-2 11 1 23 6 32c25 47 55 92 92 130c28 30 64 56 103 65c57 14 118 -12 148 -63c16 -26 24 -58 28 -89c6 -58 3 -117 2 -176c-1 -56 -1 -112 3 -168c1 -11 2 -22 -2 -32c-10 -23 -37 -31 -59 -19z
M219 81c18 -7 41 -7 59 1c4 2 18 12 22 15c4 4 14 12 14 18c-4 54 -1 108 0 163c-36 -10 -71 -30 -95 -59c-15 -19 -26 -42 -31 -66c-2 -14 -4 -29 0 -42c5 -13 17 -24 31 -30z" />
    <glyph glyph-name="b" unicode="b" horiz-adv-x="519" 
d="M155 16c0 -52 -75 -60 -86 -9c-8 40 -13 243 -15 284c-2 84 -4 169 -5 254s-1 171 10 255c2 20 23 36 42 36c24 -1 44 -20 43 -44c0 -2 -1 -12 -1 -14c-12 -102 -7 -205 -6 -308c34 41 78 78 129 95c36 12 79 16 116 2c42 -15 75 -58 91 -100c20 -53 24 -112 19 -168
c-6 -62 -23 -126 -55 -180c-21 -36 -51 -69 -86 -90c-33 -20 -76 -29 -114 -21c-30 7 -60 23 -84 44c-1 2 -2 3 -2 0c1 -4 4 -31 4 -36zM261 92c14 -2 29 2 41 8c19 11 35 27 48 44c46 62 62 149 57 227c-3 38 -22 105 -59 116c-44 15 -112 -31 -141 -68
c-23 -29 -41 -64 -55 -99c-2 -6 1 -31 1 -38c4 -31 10 -62 19 -92c6 -20 14 -41 26 -59c15 -20 39 -36 63 -39z" />
    <glyph glyph-name="c" unicode="c" horiz-adv-x="438" 
d="M299 30c-104 -78 -240 10 -269 137c-12 56 -5 117 11 173c16 58 43 115 81 161c23 27 50 53 82 66c21 9 46 12 68 7c73 -15 104 -95 88 -168c-3 -15 -9 -31 -20 -42c-27 -26 -73 -7 -73 30c0 13 9 23 11 35c5 29 -3 68 -31 63c-42 -7 -90 -85 -106 -124
c-18 -42 -29 -87 -31 -132c-1 -29 3 -61 17 -87c22 -41 69 -77 111 -58c20 10 35 30 48 49c19 30 35 61 52 93c3 6 6 12 11 16c30 29 80 2 71 -38c0 -2 -2 -8 -3 -10c-25 -48 -49 -98 -85 -140c-10 -11 -21 -22 -33 -31z" />
    <glyph glyph-name="c" unicode="&#xe7;" horiz-adv-x="438" 
d="M299 30c-104 -78 -240 10 -269 137c-12 56 -5 117 11 173c16 58 43 115 81 161c23 27 50 53 82 66c21 9 46 12 68 7c73 -15 104 -95 88 -168c-3 -15 -9 -31 -20 -42c-27 -26 -73 -7 -73 30c0 13 9 23 11 35c5 29 -3 68 -31 63c-42 -7 -90 -85 -106 -124
c-18 -42 -29 -87 -31 -132c-1 -29 3 -61 17 -87c22 -41 69 -77 111 -58c20 10 35 30 48 49c19 30 35 61 52 93c3 6 6 12 11 16c30 29 80 2 71 -38c0 -2 -2 -8 -3 -10c-25 -48 -49 -98 -85 -140c-10 -11 -21 -22 -33 -31z" />
    <glyph glyph-name="d" unicode="d" horiz-adv-x="511" 
d="M444 18c-7 -50 -83 -41 -79 9c3 42 7 84 9 126c-18 -35 -39 -69 -64 -100c-16 -18 -36 -35 -58 -45c-14 -6 -30 -9 -45 -8c-24 1 -49 10 -70 23c-32 21 -57 54 -74 89c-22 42 -34 90 -38 138c-3 46 2 95 19 137c22 53 58 101 102 137c29 24 65 45 102 51c25 5 53 3 77 -7
c22 -10 41 -26 56 -45c1 -2 1 -1 1 2c1 64 1 129 -5 194c-1 3 -3 20 -3 24c1 33 40 51 66 29c7 -5 12 -14 14 -23c5 -42 7 -85 8 -128c2 -85 -5 -519 -18 -603zM160 108c16 -17 45 -36 65 -24c19 11 32 30 44 48c30 44 54 93 67 145c10 40 14 81 21 122
c-10 29 -39 89 -68 97c-49 13 -114 -47 -143 -88c-16 -24 -30 -51 -37 -80c-9 -41 -5 -85 5 -126c8 -34 22 -69 46 -94z" />
    <glyph glyph-name="e" unicode="e" horiz-adv-x="485" 
d="M383 74c-73 -77 -202 -100 -283 -31c-19 16 -33 37 -43 59c-20 41 -27 88 -29 134c-4 66 4 135 29 196c14 35 34 68 61 93c27 24 61 44 97 50c27 5 56 3 82 -7c31 -12 59 -34 80 -59c14 -18 27 -37 32 -59c5 -25 -1 -49 -19 -67c-13 -14 -31 -23 -49 -29
c-68 -23 -147 -30 -215 -9c-9 -43 -11 -87 -6 -130c5 -36 12 -77 38 -102c15 -14 38 -20 59 -20c37 1 77 19 102 46c29 31 45 72 63 110c13 26 44 38 68 22c18 -13 25 -38 16 -57c-24 -49 -45 -100 -83 -140zM158 430c47 -12 98 -5 144 8c5 1 13 1 10 5
c-11 16 -26 29 -44 38c-39 18 -88 -13 -110 -51z" />
    <glyph glyph-name="e" unicode="&#xeb;" horiz-adv-x="485" 
d="M383 74c-73 -77 -202 -100 -283 -31c-19 16 -33 37 -43 59c-20 41 -27 88 -29 134c-4 66 4 135 29 196c14 35 34 68 61 93c27 24 61 44 97 50c27 5 56 3 82 -7c31 -12 59 -34 80 -59c14 -18 27 -37 32 -59c5 -25 -1 -49 -19 -67c-13 -14 -31 -23 -49 -29
c-68 -23 -147 -30 -215 -9c-9 -43 -11 -87 -6 -130c5 -36 12 -77 38 -102c15 -14 38 -20 59 -20c37 1 77 19 102 46c29 31 45 72 63 110c13 26 44 38 68 22c18 -13 25 -38 16 -57c-24 -49 -45 -100 -83 -140zM158 430c47 -12 98 -5 144 8c5 1 13 1 10 5
c-11 16 -26 29 -44 38c-39 18 -88 -13 -110 -51z" />
    <glyph glyph-name="e" unicode="&#xea;" horiz-adv-x="485" 
d="M383 74c-73 -77 -202 -100 -283 -31c-19 16 -33 37 -43 59c-20 41 -27 88 -29 134c-4 66 4 135 29 196c14 35 34 68 61 93c27 24 61 44 97 50c27 5 56 3 82 -7c31 -12 59 -34 80 -59c14 -18 27 -37 32 -59c5 -25 -1 -49 -19 -67c-13 -14 -31 -23 -49 -29
c-68 -23 -147 -30 -215 -9c-9 -43 -11 -87 -6 -130c5 -36 12 -77 38 -102c15 -14 38 -20 59 -20c37 1 77 19 102 46c29 31 45 72 63 110c13 26 44 38 68 22c18 -13 25 -38 16 -57c-24 -49 -45 -100 -83 -140zM158 430c47 -12 98 -5 144 8c5 1 13 1 10 5
c-11 16 -26 29 -44 38c-39 18 -88 -13 -110 -51z" />
    <glyph glyph-name="e" unicode="&#xe9;" horiz-adv-x="485" 
d="M383 74c-73 -77 -202 -100 -283 -31c-19 16 -33 37 -43 59c-20 41 -27 88 -29 134c-4 66 4 135 29 196c14 35 34 68 61 93c27 24 61 44 97 50c27 5 56 3 82 -7c31 -12 59 -34 80 -59c14 -18 27 -37 32 -59c5 -25 -1 -49 -19 -67c-13 -14 -31 -23 -49 -29
c-68 -23 -147 -30 -215 -9c-9 -43 -11 -87 -6 -130c5 -36 12 -77 38 -102c15 -14 38 -20 59 -20c37 1 77 19 102 46c29 31 45 72 63 110c13 26 44 38 68 22c18 -13 25 -38 16 -57c-24 -49 -45 -100 -83 -140zM158 430c47 -12 98 -5 144 8c5 1 13 1 10 5
c-11 16 -26 29 -44 38c-39 18 -88 -13 -110 -51z" />
    <glyph glyph-name="e" unicode="&#xe8;" horiz-adv-x="485" 
d="M383 74c-73 -77 -202 -100 -283 -31c-19 16 -33 37 -43 59c-20 41 -27 88 -29 134c-4 66 4 135 29 196c14 35 34 68 61 93c27 24 61 44 97 50c27 5 56 3 82 -7c31 -12 59 -34 80 -59c14 -18 27 -37 32 -59c5 -25 -1 -49 -19 -67c-13 -14 -31 -23 -49 -29
c-68 -23 -147 -30 -215 -9c-9 -43 -11 -87 -6 -130c5 -36 12 -77 38 -102c15 -14 38 -20 59 -20c37 1 77 19 102 46c29 31 45 72 63 110c13 26 44 38 68 22c18 -13 25 -38 16 -57c-24 -49 -45 -100 -83 -140zM158 430c47 -12 98 -5 144 8c5 1 13 1 10 5
c-11 16 -26 29 -44 38c-39 18 -88 -13 -110 -51z" />
    <glyph glyph-name="f" unicode="f" horiz-adv-x="443" 
d="M177 51c7 -42 -47 -65 -72 -30c-1 2 -6 11 -7 13c-18 42 -24 222 -25 267c-1 64 0 129 5 192c-8 1 -17 1 -25 2c-43 10 -43 70 0 79c5 1 30 0 35 0c11 66 31 138 77 187c40 41 108 65 165 52c42 -9 74 -38 87 -79c10 -31 13 -64 14 -97c1 -37 -43 -57 -69 -31
c-7 7 -12 18 -11 29c2 23 -3 77 -21 92c-12 10 -32 11 -48 8c-22 -3 -45 -15 -61 -31c-31 -34 -42 -84 -51 -130c42 1 84 3 125 7c11 1 22 -4 30 -11c23 -23 10 -65 -22 -68c-47 -5 -95 -7 -142 -8c-2 0 -3 -1 -3 -3c-8 -96 -7 -192 -1 -287c1 -21 8 -116 13 -135
c2 -6 6 -12 7 -18z" />
    <glyph glyph-name="g" unicode="g" horiz-adv-x="473" 
d="M238 -195c-40 -21 -96 -17 -137 4c-8 5 -36 24 -41 32c-19 27 4 62 37 59c7 -1 13 -3 19 -7c12 -9 24 -19 39 -23c12 -3 25 -4 37 0c14 4 26 11 37 21c50 42 77 110 93 173c-12 -17 -27 -32 -45 -44c-20 -12 -44 -20 -68 -20c-29 0 -59 11 -82 29c-34 26 -60 63 -75 103
c-27 73 -31 156 -17 233c14 68 47 139 102 180c27 21 63 34 97 33c46 -2 90 -22 120 -56c2 12 5 26 14 35c22 20 60 11 64 -19c1 -7 2 -47 3 -54c6 -85 3 -172 -6 -257c-8 -79 -20 -158 -46 -233c-19 -55 -47 -110 -89 -150c-17 -15 -36 -28 -56 -39zM184 84
c16 -10 34 -10 49 0c22 14 35 39 46 62c33 72 49 152 53 231c1 11 -13 52 -17 63c-8 18 -21 36 -37 46c-13 8 -28 14 -44 15c-12 0 -25 -2 -36 -8c-16 -8 -30 -23 -41 -38c-16 -22 -28 -47 -36 -73c-20 -67 -19 -142 0 -209c10 -35 32 -71 63 -89z" />
    <glyph glyph-name="h" unicode="h" horiz-adv-x="493" 
d="M149 -16c-19 -40 -80 -31 -84 14c-1 12 -2 24 -4 35c0 3 1 19 1 22c-10 165 -7 331 -10 496c-1 54 -3 108 -4 162c-1 24 -5 115 4 137c18 44 84 31 84 -17c0 -3 -2 -17 -2 -20c-2 -39 6 -267 6 -307c0 -2 0 -4 2 -2c26 25 56 46 89 60c26 12 56 17 84 12
c35 -8 67 -33 88 -62c28 -41 41 -92 46 -141c7 -63 7 -125 8 -188c0 -18 0 -122 1 -141c4 -45 -54 -67 -79 -29c-5 8 -7 18 -8 28c-1 19 -2 131 -2 150c0 50 0 101 -4 152c-3 25 -7 50 -13 74c-9 31 -33 73 -64 72c-8 -1 -16 -4 -23 -7c-26 -13 -51 -30 -71 -51
c-28 -30 -46 -71 -48 -112c-1 -1 -1 -2 -1 -3c-7 -45 4 -262 7 -307c1 -9 1 -19 -3 -27z" />
    <glyph glyph-name="i" unicode="i" horiz-adv-x="182" 
d="M110 648c-28 -19 -66 4 -63 38c2 13 12 25 21 35c6 7 16 11 25 12c33 3 56 -33 38 -61c-3 -5 -17 -21 -21 -24zM115 11c-27 -22 -67 -3 -68 33c-3 96 1 192 3 288c1 25 2 180 3 206c1 35 41 53 68 31c8 -6 14 -16 15 -25c1 -14 -1 -88 -1 -102c-1 -133 -9 -266 -4 -398
c0 -12 -7 -26 -16 -33z" />
    <glyph glyph-name="i" unicode="&#xef;" horiz-adv-x="182" 
d="M110 648c-28 -19 -66 4 -63 38c2 13 12 25 21 35c6 7 16 11 25 12c33 3 56 -33 38 -61c-3 -5 -17 -21 -21 -24zM115 11c-27 -22 -67 -3 -68 33c-3 96 1 192 3 288c1 25 2 180 3 206c1 35 41 53 68 31c8 -6 14 -16 15 -25c1 -14 -1 -88 -1 -102c-1 -133 -9 -266 -4 -398
c0 -12 -7 -26 -16 -33z" />
    <glyph glyph-name="i" unicode="&#xee;" horiz-adv-x="182" 
d="M110 648c-28 -19 -66 4 -63 38c2 13 12 25 21 35c6 7 16 11 25 12c33 3 56 -33 38 -61c-3 -5 -17 -21 -21 -24zM115 11c-27 -22 -67 -3 -68 33c-3 96 1 192 3 288c1 25 2 180 3 206c1 35 41 53 68 31c8 -6 14 -16 15 -25c1 -14 -1 -88 -1 -102c-1 -133 -9 -266 -4 -398
c0 -12 -7 -26 -16 -33z" />
    <glyph glyph-name="i" unicode="&#xed;" horiz-adv-x="182" 
d="M110 648c-28 -19 -66 4 -63 38c2 13 12 25 21 35c6 7 16 11 25 12c33 3 56 -33 38 -61c-3 -5 -17 -21 -21 -24zM115 11c-27 -22 -67 -3 -68 33c-3 96 1 192 3 288c1 25 2 180 3 206c1 35 41 53 68 31c8 -6 14 -16 15 -25c1 -14 -1 -88 -1 -102c-1 -133 -9 -266 -4 -398
c0 -12 -7 -26 -16 -33z" />
    <glyph glyph-name="i" unicode="&#xec;" horiz-adv-x="182" 
d="M110 648c-28 -19 -66 4 -63 38c2 13 12 25 21 35c6 7 16 11 25 12c33 3 56 -33 38 -61c-3 -5 -17 -21 -21 -24zM115 11c-27 -22 -67 -3 -68 33c-3 96 1 192 3 288c1 25 2 180 3 206c1 35 41 53 68 31c8 -6 14 -16 15 -25c1 -14 -1 -88 -1 -102c-1 -133 -9 -266 -4 -398
c0 -12 -7 -26 -16 -33z" />
    <glyph glyph-name="j" unicode="j" horiz-adv-x="181" 
d="M106 641c-30 -12 -62 14 -55 46c1 2 4 15 5 17c17 41 77 29 77 -15c0 -18 -10 -41 -27 -48zM45 -180c-27 -22 -66 -36 -101 -31c-33 5 -63 27 -85 52c-11 14 -46 63 -49 80c-7 33 28 58 58 43c6 -4 11 -8 14 -14c16 -29 48 -85 81 -82c10 1 20 5 28 11c23 16 38 43 45 70
c14 53 14 108 15 163c3 114 3 228 2 342c-1 10 -3 72 -3 82c-1 40 51 56 73 23c7 -11 7 -25 8 -38c3 -71 2 -443 -5 -514c-3 -37 -9 -74 -23 -109c-12 -30 -32 -58 -58 -78z" />
    <glyph glyph-name="k" unicode="k" horiz-adv-x="465" 
d="M122 -13c-18 -19 -50 -16 -65 7c-7 11 -8 26 -8 39c0 24 2 167 3 190c3 145 8 290 7 434c-1 21 -2 118 3 138c9 35 52 46 74 18c7 -8 11 -18 10 -28c-3 -32 -3 -64 -3 -96c1 -94 1 -188 -1 -282c-1 -3 -1 -4 1 -2c24 19 164 135 188 153c10 7 19 15 31 17
c33 6 60 -27 47 -59c-4 -9 -12 -16 -20 -22c-28 -19 -174 -141 -200 -162c-2 -2 -2 -2 0 -5s3 -7 6 -9c61 -49 116 -103 169 -159c15 -17 75 -85 83 -105c20 -50 -47 -84 -76 -39c-20 31 -46 59 -72 87c-37 40 -75 80 -117 116c-6 4 -39 30 -44 35c-1 -31 -6 -202 -3 -233
c1 -12 -4 -24 -13 -33z" />
    <glyph glyph-name="l" unicode="l" horiz-adv-x="194" 
d="M122 -8c-24 -25 -65 -12 -71 22c-3 16 -1 94 -1 110c3 187 11 373 8 560c0 21 -2 103 6 123c19 45 86 29 82 -20c-4 -45 -3 -91 -2 -136c2 -183 -6 -365 -9 -548c-1 -10 -1 -68 0 -79s-4 -24 -13 -32z" />
    <glyph glyph-name="m" unicode="m" horiz-adv-x="755" 
d="M439 -10c-25 -7 -51 11 -60 36c-5 17 -10 33 -13 50c-19 92 -25 185 -39 278c-2 10 -12 63 -16 74c-4 10 -8 21 -15 30c-13 -11 -41 -66 -48 -81c-19 -43 -36 -89 -48 -135c-11 -41 -17 -83 -21 -124c-1 -10 -6 -63 -8 -73c-10 -50 -78 -60 -96 -13
c-13 32 -20 175 -22 209c-3 60 -5 120 -8 180c-1 18 -8 126 -8 145c0 11 1 22 5 32c19 43 81 37 91 -9c2 -7 1 -15 0 -22c-2 -26 9 -164 11 -190c11 28 23 55 37 82c12 22 25 44 42 63c38 42 102 44 142 3c22 -21 34 -51 41 -81c17 -62 23 -126 30 -189c20 77 46 153 84 223
c13 24 27 48 49 64c16 11 40 16 59 9c13 -5 24 -15 32 -26c12 -16 17 -36 23 -55c10 -35 16 -72 22 -108c10 -68 15 -138 18 -207c2 -27 5 -110 -10 -132c-16 -22 -47 -25 -67 -6c-7 7 -11 18 -13 28c-3 15 -5 91 -6 106c-3 90 -11 180 -30 267c-43 -87 -68 -182 -89 -277
c-4 -21 -22 -110 -35 -129c-7 -11 -21 -18 -34 -22z" />
    <glyph glyph-name="n" unicode="n" horiz-adv-x="486" 
d="M456 0c2 -45 -58 -63 -82 -25c-5 7 -7 17 -8 26c-1 43 -13 290 -17 332c-2 25 -12 101 -29 120c-31 -6 -68 -70 -81 -99c-41 -87 -65 -181 -82 -275c-3 -20 -4 -42 -15 -59c-22 -32 -69 -23 -82 14c-5 12 -6 68 -6 81c-1 96 0 192 -7 288c-1 18 -11 124 -12 142
c-1 17 3 37 15 49c33 33 85 1 75 -44c-1 -7 2 -35 3 -42c5 -52 10 -103 12 -155c19 47 43 94 76 132c25 29 62 54 100 58c18 1 38 -5 54 -15c23 -16 38 -43 47 -69c12 -36 17 -74 21 -112c11 -115 13 -232 18 -347z" />
    <glyph glyph-name="n" unicode="&#xf1;" horiz-adv-x="486" 
d="M456 0c2 -45 -58 -63 -82 -25c-5 7 -7 17 -8 26c-1 43 -13 290 -17 332c-2 25 -12 101 -29 120c-31 -6 -68 -70 -81 -99c-41 -87 -65 -181 -82 -275c-3 -20 -4 -42 -15 -59c-22 -32 -69 -23 -82 14c-5 12 -6 68 -6 81c-1 96 0 192 -7 288c-1 18 -11 124 -12 142
c-1 17 3 37 15 49c33 33 85 1 75 -44c-1 -7 2 -35 3 -42c5 -52 10 -103 12 -155c19 47 43 94 76 132c25 29 62 54 100 58c18 1 38 -5 54 -15c23 -16 38 -43 47 -69c12 -36 17 -74 21 -112c11 -115 13 -232 18 -347z" />
    <glyph glyph-name="o" unicode="o" horiz-adv-x="457" 
d="M351 81c-30 -42 -83 -75 -135 -75c-41 0 -82 27 -110 58c-44 48 -69 116 -78 181c-6 47 -4 97 11 142c15 47 37 95 73 130c28 27 65 44 103 53c30 7 62 9 91 1c24 -6 48 -19 65 -37c28 -29 45 -70 53 -110c11 -54 10 -113 -5 -167c-17 -60 -32 -125 -68 -176zM209 82
c23 -7 57 18 71 36c15 18 24 41 32 62c11 29 21 58 27 88c4 18 8 36 10 55c2 31 2 63 -5 93c-6 23 -14 47 -30 65c-7 7 -16 14 -25 17c-38 14 -101 -11 -127 -41c-45 -54 -64 -134 -54 -203c7 -44 20 -88 45 -124c14 -20 33 -41 56 -48z" />
    <glyph glyph-name="o" unicode="&#xf8;" horiz-adv-x="457" 
d="M351 81c-30 -42 -83 -75 -135 -75c-41 0 -82 27 -110 58c-44 48 -69 116 -78 181c-6 47 -4 97 11 142c15 47 37 95 73 130c28 27 65 44 103 53c30 7 62 9 91 1c24 -6 48 -19 65 -37c28 -29 45 -70 53 -110c11 -54 10 -113 -5 -167c-17 -60 -32 -125 -68 -176zM209 82
c23 -7 57 18 71 36c15 18 24 41 32 62c11 29 21 58 27 88c4 18 8 36 10 55c2 31 2 63 -5 93c-6 23 -14 47 -30 65c-7 7 -16 14 -25 17c-38 14 -101 -11 -127 -41c-45 -54 -64 -134 -54 -203c7 -44 20 -88 45 -124c14 -20 33 -41 56 -48z" />
    <glyph glyph-name="o" unicode="&#xf6;" horiz-adv-x="457" 
d="M351 81c-30 -42 -83 -75 -135 -75c-41 0 -82 27 -110 58c-44 48 -69 116 -78 181c-6 47 -4 97 11 142c15 47 37 95 73 130c28 27 65 44 103 53c30 7 62 9 91 1c24 -6 48 -19 65 -37c28 -29 45 -70 53 -110c11 -54 10 -113 -5 -167c-17 -60 -32 -125 -68 -176zM209 82
c23 -7 57 18 71 36c15 18 24 41 32 62c11 29 21 58 27 88c4 18 8 36 10 55c2 31 2 63 -5 93c-6 23 -14 47 -30 65c-7 7 -16 14 -25 17c-38 14 -101 -11 -127 -41c-45 -54 -64 -134 -54 -203c7 -44 20 -88 45 -124c14 -20 33 -41 56 -48z" />
    <glyph glyph-name="o" unicode="&#xf5;" horiz-adv-x="457" 
d="M351 81c-30 -42 -83 -75 -135 -75c-41 0 -82 27 -110 58c-44 48 -69 116 -78 181c-6 47 -4 97 11 142c15 47 37 95 73 130c28 27 65 44 103 53c30 7 62 9 91 1c24 -6 48 -19 65 -37c28 -29 45 -70 53 -110c11 -54 10 -113 -5 -167c-17 -60 -32 -125 -68 -176zM209 82
c23 -7 57 18 71 36c15 18 24 41 32 62c11 29 21 58 27 88c4 18 8 36 10 55c2 31 2 63 -5 93c-6 23 -14 47 -30 65c-7 7 -16 14 -25 17c-38 14 -101 -11 -127 -41c-45 -54 -64 -134 -54 -203c7 -44 20 -88 45 -124c14 -20 33 -41 56 -48z" />
    <glyph glyph-name="o" unicode="&#xf4;" horiz-adv-x="457" 
d="M351 81c-30 -42 -83 -75 -135 -75c-41 0 -82 27 -110 58c-44 48 -69 116 -78 181c-6 47 -4 97 11 142c15 47 37 95 73 130c28 27 65 44 103 53c30 7 62 9 91 1c24 -6 48 -19 65 -37c28 -29 45 -70 53 -110c11 -54 10 -113 -5 -167c-17 -60 -32 -125 -68 -176zM209 82
c23 -7 57 18 71 36c15 18 24 41 32 62c11 29 21 58 27 88c4 18 8 36 10 55c2 31 2 63 -5 93c-6 23 -14 47 -30 65c-7 7 -16 14 -25 17c-38 14 -101 -11 -127 -41c-45 -54 -64 -134 -54 -203c7 -44 20 -88 45 -124c14 -20 33 -41 56 -48z" />
    <glyph glyph-name="o" unicode="&#xf3;" horiz-adv-x="457" 
d="M351 81c-30 -42 -83 -75 -135 -75c-41 0 -82 27 -110 58c-44 48 -69 116 -78 181c-6 47 -4 97 11 142c15 47 37 95 73 130c28 27 65 44 103 53c30 7 62 9 91 1c24 -6 48 -19 65 -37c28 -29 45 -70 53 -110c11 -54 10 -113 -5 -167c-17 -60 -32 -125 -68 -176zM209 82
c23 -7 57 18 71 36c15 18 24 41 32 62c11 29 21 58 27 88c4 18 8 36 10 55c2 31 2 63 -5 93c-6 23 -14 47 -30 65c-7 7 -16 14 -25 17c-38 14 -101 -11 -127 -41c-45 -54 -64 -134 -54 -203c7 -44 20 -88 45 -124c14 -20 33 -41 56 -48z" />
    <glyph glyph-name="o" unicode="&#xf2;" horiz-adv-x="457" 
d="M351 81c-30 -42 -83 -75 -135 -75c-41 0 -82 27 -110 58c-44 48 -69 116 -78 181c-6 47 -4 97 11 142c15 47 37 95 73 130c28 27 65 44 103 53c30 7 62 9 91 1c24 -6 48 -19 65 -37c28 -29 45 -70 53 -110c11 -54 10 -113 -5 -167c-17 -60 -32 -125 -68 -176zM209 82
c23 -7 57 18 71 36c15 18 24 41 32 62c11 29 21 58 27 88c4 18 8 36 10 55c2 31 2 63 -5 93c-6 23 -14 47 -30 65c-7 7 -16 14 -25 17c-38 14 -101 -11 -127 -41c-45 -54 -64 -134 -54 -203c7 -44 20 -88 45 -124c14 -20 33 -41 56 -48z" />
    <glyph glyph-name="p" unicode="p" horiz-adv-x="481" 
d="M130 -320c-26 -17 -62 -3 -67 28c-11 58 -13 118 -15 177c-5 204 6 407 -2 610c0 15 -3 88 -1 102c7 56 83 53 86 -3c0 -6 1 -43 1 -49c31 19 64 36 100 43c27 6 56 2 82 -7c37 -14 71 -41 95 -72c31 -38 44 -90 47 -138c6 -91 -24 -189 -79 -262
c-36 -49 -89 -90 -148 -106c-31 -8 -65 -5 -95 5c0 -52 0 -104 2 -156c3 -51 -1 -104 4 -155c0 -7 -5 -13 -10 -17zM134 101c15 -13 36 -22 56 -22c22 0 43 8 62 20c40 25 72 66 92 109c17 37 29 78 32 119c3 36 0 76 -16 109c-10 24 -29 44 -51 58c-13 8 -27 15 -42 17
c-14 1 -28 -3 -41 -7c-24 -10 -47 -23 -68 -39c-7 -5 -23 -19 -23 -28c2 -112 0 -224 -1 -336z" />
    <glyph glyph-name="q" unicode="q" horiz-adv-x="488" 
d="M447 -329c-3 -10 -19 -17 -29 -18c-19 -1 -37 10 -44 27c-8 19 -13 101 -14 121c-6 95 -5 191 -4 286c0 2 1 4 0 3c-11 -20 -24 -40 -41 -55c-19 -17 -42 -30 -66 -35c-21 -5 -42 -4 -62 1c-30 8 -59 24 -82 45c-31 28 -53 67 -66 106c-18 54 -19 115 -7 170
c18 82 70 161 137 213c25 20 56 37 88 42c28 4 57 1 82 -10c5 -2 9 -5 13 -6c1 8 1 17 3 25c11 37 59 45 78 12c3 -7 7 -15 6 -23c-1 -27 1 -54 2 -80c7 -181 1 -363 1 -544c1 -53 4 -107 3 -160c0 -38 0 -76 3 -114c0 -1 0 -5 -1 -6zM186 89c12 -6 26 -12 40 -10
c17 2 32 16 43 30c15 22 25 48 32 73c19 64 28 130 35 196c1 9 0 52 0 61c-1 14 -4 30 -13 40s-23 16 -36 17c-16 2 -32 -4 -45 -12c-26 -15 -48 -37 -67 -60c-22 -29 -42 -61 -53 -96c-13 -41 -16 -86 -7 -128c8 -43 33 -89 71 -111z" />
    <glyph glyph-name="r" unicode="r" horiz-adv-x="392" 
d="M144 28c-3 -19 -21 -33 -41 -33c-17 0 -33 11 -40 26c-7 18 -9 96 -9 115c-2 51 -7 355 -10 406c-1 19 -3 38 -4 58c-1 38 40 60 70 36c10 -8 15 -20 15 -33c-1 -7 2 -41 3 -48c2 -28 3 -57 4 -86c0 -2 0 -2 2 1c20 32 45 62 76 84c35 23 76 34 118 30c12 -1 25 -2 35 -9
c27 -18 23 -59 -7 -72c-18 -8 -40 1 -59 -2c-34 -6 -63 -34 -83 -62c-38 -55 -59 -124 -67 -190c-7 -60 -6 -120 -3 -180c1 -14 3 -28 0 -41z" />
    <glyph glyph-name="s" unicode="s" horiz-adv-x="407" 
d="M320 47c-51 -47 -120 -61 -185 -38c-44 15 -79 55 -101 95c-10 20 -23 41 -18 62c9 41 61 47 81 10c2 -4 2 -9 4 -13c12 -26 28 -53 52 -67s58 -13 83 -2c27 12 54 40 43 68c-3 10 -8 19 -15 28c-20 23 -48 37 -73 55c-39 28 -75 65 -94 109c-10 22 -15 46 -14 70
c1 35 11 69 31 98c15 20 36 37 59 47c30 12 66 14 98 6c34 -8 62 -35 81 -64c18 -26 26 -58 29 -89c0 -1 -1 -8 -1 -10c-7 -38 -57 -48 -78 -15c-8 13 -7 31 -12 46c-4 14 -24 41 -37 46c-20 8 -54 1 -67 -16c-18 -22 -23 -55 -12 -81s31 -49 53 -66c32 -25 69 -43 96 -72
c26 -29 46 -70 45 -109c-1 -36 -21 -73 -48 -98z" />
    <glyph glyph-name="t" unicode="t" horiz-adv-x="352" 
d="M298 70c-29 -54 -95 -82 -148 -51c-23 14 -38 40 -46 65c-13 36 -17 74 -20 112c-8 99 3 198 16 297c0 1 -2 1 -4 1c-9 0 -47 0 -55 4c-41 16 -29 77 15 77c7 0 47 -1 54 -1c8 53 16 106 23 160c0 6 1 13 4 19c13 27 49 32 68 9c5 -7 9 -17 8 -25
c-3 -20 -19 -142 -21 -162c33 1 66 3 99 6c9 1 19 -3 26 -9c27 -22 15 -67 -21 -70c-38 -4 -77 -6 -116 -7c-9 -70 -17 -141 -18 -211c-2 -55 0 -111 14 -163c4 -15 9 -37 24 -34c9 1 18 7 24 14c8 10 13 24 14 38c1 3 1 18 2 21c7 38 61 44 76 7c3 -9 3 -19 2 -29
c-2 -23 -8 -47 -20 -68z" />
    <glyph glyph-name="u" unicode="u" horiz-adv-x="477" 
d="M452 27c0 -39 -51 -54 -72 -22c-17 28 -29 152 -32 185c-1 3 -1 4 -2 1c-12 -38 -27 -75 -47 -110c-15 -25 -33 -50 -57 -66c-19 -13 -45 -19 -68 -14c-25 5 -48 22 -65 42c-31 38 -52 86 -63 134c-19 77 -16 157 -8 235c3 24 15 124 26 146c11 24 41 33 63 19
c4 -3 13 -11 12 -16c0 -8 -7 -48 -9 -56c-15 -82 -25 -167 -18 -250c4 -52 17 -106 47 -149c6 -9 22 -28 32 -29c7 -1 19 11 23 17c25 32 40 69 54 107c32 89 44 185 51 280c2 20 3 40 5 60c5 46 68 51 78 6c3 -13 4 -78 4 -91c4 -111 13 -222 28 -332c3 -26 7 -52 12 -77
c2 -7 6 -14 6 -20z" />
    <glyph glyph-name="u" unicode="&#xfc;" horiz-adv-x="477" 
d="M452 27c0 -39 -51 -54 -72 -22c-17 28 -29 152 -32 185c-1 3 -1 4 -2 1c-12 -38 -27 -75 -47 -110c-15 -25 -33 -50 -57 -66c-19 -13 -45 -19 -68 -14c-25 5 -48 22 -65 42c-31 38 -52 86 -63 134c-19 77 -16 157 -8 235c3 24 15 124 26 146c11 24 41 33 63 19
c4 -3 13 -11 12 -16c0 -8 -7 -48 -9 -56c-15 -82 -25 -167 -18 -250c4 -52 17 -106 47 -149c6 -9 22 -28 32 -29c7 -1 19 11 23 17c25 32 40 69 54 107c32 89 44 185 51 280c2 20 3 40 5 60c5 46 68 51 78 6c3 -13 4 -78 4 -91c4 -111 13 -222 28 -332c3 -26 7 -52 12 -77
c2 -7 6 -14 6 -20z" />
    <glyph glyph-name="u" unicode="&#xfb;" horiz-adv-x="477" 
d="M452 27c0 -39 -51 -54 -72 -22c-17 28 -29 152 -32 185c-1 3 -1 4 -2 1c-12 -38 -27 -75 -47 -110c-15 -25 -33 -50 -57 -66c-19 -13 -45 -19 -68 -14c-25 5 -48 22 -65 42c-31 38 -52 86 -63 134c-19 77 -16 157 -8 235c3 24 15 124 26 146c11 24 41 33 63 19
c4 -3 13 -11 12 -16c0 -8 -7 -48 -9 -56c-15 -82 -25 -167 -18 -250c4 -52 17 -106 47 -149c6 -9 22 -28 32 -29c7 -1 19 11 23 17c25 32 40 69 54 107c32 89 44 185 51 280c2 20 3 40 5 60c5 46 68 51 78 6c3 -13 4 -78 4 -91c4 -111 13 -222 28 -332c3 -26 7 -52 12 -77
c2 -7 6 -14 6 -20z" />
    <glyph glyph-name="u" unicode="&#xfa;" horiz-adv-x="477" 
d="M452 27c0 -39 -51 -54 -72 -22c-17 28 -29 152 -32 185c-1 3 -1 4 -2 1c-12 -38 -27 -75 -47 -110c-15 -25 -33 -50 -57 -66c-19 -13 -45 -19 -68 -14c-25 5 -48 22 -65 42c-31 38 -52 86 -63 134c-19 77 -16 157 -8 235c3 24 15 124 26 146c11 24 41 33 63 19
c4 -3 13 -11 12 -16c0 -8 -7 -48 -9 -56c-15 -82 -25 -167 -18 -250c4 -52 17 -106 47 -149c6 -9 22 -28 32 -29c7 -1 19 11 23 17c25 32 40 69 54 107c32 89 44 185 51 280c2 20 3 40 5 60c5 46 68 51 78 6c3 -13 4 -78 4 -91c4 -111 13 -222 28 -332c3 -26 7 -52 12 -77
c2 -7 6 -14 6 -20z" />
    <glyph glyph-name="u" unicode="&#xf9;" horiz-adv-x="477" 
d="M452 27c0 -39 -51 -54 -72 -22c-17 28 -29 152 -32 185c-1 3 -1 4 -2 1c-12 -38 -27 -75 -47 -110c-15 -25 -33 -50 -57 -66c-19 -13 -45 -19 -68 -14c-25 5 -48 22 -65 42c-31 38 -52 86 -63 134c-19 77 -16 157 -8 235c3 24 15 124 26 146c11 24 41 33 63 19
c4 -3 13 -11 12 -16c0 -8 -7 -48 -9 -56c-15 -82 -25 -167 -18 -250c4 -52 17 -106 47 -149c6 -9 22 -28 32 -29c7 -1 19 11 23 17c25 32 40 69 54 107c32 89 44 185 51 280c2 20 3 40 5 60c5 46 68 51 78 6c3 -13 4 -78 4 -91c4 -111 13 -222 28 -332c3 -26 7 -52 12 -77
c2 -7 6 -14 6 -20z" />
    <glyph glyph-name="v" unicode="v" horiz-adv-x="522" 
d="M282 5c-22 -9 -49 -9 -70 1c-22 10 -40 28 -54 48c-31 44 -49 98 -66 150c-22 72 -40 145 -55 219c-6 23 -11 47 -14 71c-2 14 -3 29 0 43c8 29 41 42 66 26c2 -2 9 -7 10 -10c2 -6 7 -38 8 -45c4 -27 37 -171 43 -197c16 -62 33 -124 62 -182c5 -11 25 -43 36 -48
c8 3 14 10 20 18c17 22 29 47 40 73c55 128 80 267 112 404c8 34 52 46 75 19c9 -11 12 -23 9 -36c-10 -41 -18 -82 -27 -123c-22 -93 -46 -185 -81 -274c-19 -46 -40 -94 -75 -130c-11 -11 -24 -21 -39 -27z" />
    <glyph glyph-name="w" unicode="w" horiz-adv-x="651" 
d="M535 -12c-13 -13 -33 -21 -51 -17c-19 3 -36 19 -46 35c-22 35 -36 75 -50 115c-18 56 -33 114 -45 172c-1 3 -1 1 -2 -2c-10 -44 -22 -87 -36 -131c-12 -38 -25 -78 -49 -111c-15 -21 -38 -41 -63 -45c-20 -3 -41 2 -57 14c-25 17 -42 46 -52 74c-9 27 -16 55 -20 83
c-11 57 -39 315 -33 373c1 17 8 34 19 47c13 15 39 16 56 5c4 -3 7 -17 8 -22c2 -15 3 -30 3 -45c-2 -44 20 -258 26 -301c4 -33 10 -65 19 -96c4 -15 10 -30 19 -43c35 41 79 230 90 283c4 17 21 99 28 115c4 9 10 19 19 25c21 13 53 6 66 -15c11 -18 27 -104 31 -125
c18 -93 37 -186 73 -273c27 119 37 243 41 366c1 14 1 81 5 95c9 41 66 47 83 8c5 -14 0 -69 0 -84c-3 -105 -10 -212 -27 -316c-8 -47 -17 -95 -32 -141c-5 -15 -12 -31 -23 -43z" />
    <glyph glyph-name="x" unicode="x" horiz-adv-x="389" 
d="M328 53c21 -48 -50 -79 -72 -31c-8 18 -53 119 -62 136c-22 -44 -45 -88 -67 -132c-20 -38 -75 -24 -75 19c0 6 3 12 6 17c31 61 62 123 93 184c0 2 0 4 -1 6c-23 48 -47 97 -71 145c-10 21 -58 111 -62 134c-8 41 46 63 70 29c4 -5 5 -12 8 -18c11 -27 87 -178 100 -205
c22 45 43 90 64 135c8 18 37 85 52 98c33 27 80 -11 60 -48c-1 -1 -4 -5 -5 -6c-5 -8 -26 -54 -30 -63c-32 -68 -65 -137 -98 -205c31 -65 60 -130 90 -195z" />
    <glyph glyph-name="y" unicode="y" horiz-adv-x="564" 
d="M149 -269c-18 -3 -38 0 -56 6c-24 8 -45 27 -58 48c-7 12 -12 26 -10 39c6 37 55 47 74 15c6 -9 11 -19 21 -23c5 -2 13 -5 17 -1c13 10 43 67 50 82c19 36 39 72 56 110c-6 8 -28 50 -32 59c-46 112 -91 225 -141 336c-17 38 -37 76 -55 114c-21 47 45 85 71 40
c6 -9 31 -62 36 -72c24 -48 142 -331 162 -380c13 32 90 228 104 260c19 46 40 90 60 135c4 8 21 50 26 57c18 29 59 32 74 2c3 -5 7 -17 5 -22c-29 -73 -65 -143 -95 -216c-50 -121 -91 -246 -149 -364c-10 -21 -70 -136 -81 -156c-10 -15 -20 -30 -32 -43
c-13 -13 -30 -23 -47 -26z" />
    <glyph glyph-name="y" unicode="&#xff;" horiz-adv-x="564" 
d="M149 -269c-18 -3 -38 0 -56 6c-24 8 -45 27 -58 48c-7 12 -12 26 -10 39c6 37 55 47 74 15c6 -9 11 -19 21 -23c5 -2 13 -5 17 -1c13 10 43 67 50 82c19 36 39 72 56 110c-6 8 -28 50 -32 59c-46 112 -91 225 -141 336c-17 38 -37 76 -55 114c-21 47 45 85 71 40
c6 -9 31 -62 36 -72c24 -48 142 -331 162 -380c13 32 90 228 104 260c19 46 40 90 60 135c4 8 21 50 26 57c18 29 59 32 74 2c3 -5 7 -17 5 -22c-29 -73 -65 -143 -95 -216c-50 -121 -91 -246 -149 -364c-10 -21 -70 -136 -81 -156c-10 -15 -20 -30 -32 -43
c-13 -13 -30 -23 -47 -26z" />
    <glyph glyph-name="y" unicode="&#xfd;" horiz-adv-x="564" 
d="M149 -269c-18 -3 -38 0 -56 6c-24 8 -45 27 -58 48c-7 12 -12 26 -10 39c6 37 55 47 74 15c6 -9 11 -19 21 -23c5 -2 13 -5 17 -1c13 10 43 67 50 82c19 36 39 72 56 110c-6 8 -28 50 -32 59c-46 112 -91 225 -141 336c-17 38 -37 76 -55 114c-21 47 45 85 71 40
c6 -9 31 -62 36 -72c24 -48 142 -331 162 -380c13 32 90 228 104 260c19 46 40 90 60 135c4 8 21 50 26 57c18 29 59 32 74 2c3 -5 7 -17 5 -22c-29 -73 -65 -143 -95 -216c-50 -121 -91 -246 -149 -364c-10 -21 -70 -136 -81 -156c-10 -15 -20 -30 -32 -43
c-13 -13 -30 -23 -47 -26z" />
    <glyph glyph-name="z" unicode="z" horiz-adv-x="560" 
d="M252 -1c-35 0 -69 0 -104 2c-24 2 -48 5 -71 11c-16 5 -33 13 -45 26c-17 18 -23 42 -17 67c9 35 33 64 55 92c58 69 125 130 187 195c13 14 75 80 85 97c-51 -6 -101 -17 -151 -17c-16 1 -32 1 -48 1c-28 1 -49 24 -43 51c4 19 22 34 42 34c30 -1 61 -3 92 1
c38 5 76 12 115 15c17 2 35 2 50 -4c19 -8 36 -27 39 -46c3 -16 0 -34 -7 -49c-8 -19 -21 -37 -34 -54c-81 -100 -181 -183 -264 -281c-13 -15 -25 -30 -32 -47c15 -4 31 -6 47 -8c43 -3 86 -2 128 -2c77 1 154 4 231 6c52 2 62 -72 11 -83c-2 0 -10 -1 -12 -1
c-85 -3 -169 -6 -254 -6z" />
    <glyph glyph-name="asciitilde" unicode="~" horiz-adv-x="489" 
d="M107 255c-2 -44 -62 -54 -78 -12c-4 10 -3 22 -2 33c6 51 46 95 96 105c25 5 51 0 76 -7c28 -9 55 -22 83 -33c18 -7 54 -20 69 -7c18 16 25 40 37 61c26 44 91 15 73 -33c-1 -4 -13 -26 -15 -30c-14 -25 -30 -52 -55 -68c-18 -11 -41 -17 -62 -16c-40 2 -78 19 -115 35
c-19 8 -39 17 -60 20c-24 3 -46 -14 -48 -38c0 -3 1 -7 1 -10z" />
    <glyph glyph-name="nonbreakingspace" unicode="&#xa0;" horiz-adv-x="250" 
 />
    <glyph glyph-name="softhyphen" unicode="&#xad;" 
 />
    <glyph glyph-name="multiply" unicode="&#xd7;" horiz-adv-x="399" 
d="M98 146c-34 -29 -82 12 -61 50c25 43 58 80 90 118c2 2 2 2 0 4c-28 23 -52 52 -72 83c-2 2 -4 12 -5 15c-2 30 28 52 55 40c7 -2 13 -6 16 -11c17 -25 36 -49 60 -68c10 12 58 71 70 81c35 26 81 -12 60 -50c-4 -8 -11 -14 -17 -21s-42 -49 -47 -56c-1 -1 0 -2 1 -3
c41 -28 83 -56 114 -94c26 -30 -4 -75 -42 -64c-9 3 -16 10 -23 17c-30 32 -67 57 -103 82c-29 -35 -60 -69 -84 -108c-4 -5 -7 -11 -12 -15z" />
    <glyph glyph-name="divide" unicode="&#xf7;" horiz-adv-x="384" 
d="M215 515c34 -23 16 -74 -25 -74c-21 0 -39 18 -40 39c-1 34 37 54 65 35zM324 291c-38 -8 -218 -12 -256 -12c-2 0 -12 1 -14 2c-13 2 -26 13 -31 26c-15 34 16 69 50 56c4 -1 8 -4 11 -4c36 0 199 3 234 13c6 1 13 0 19 -2c29 -8 38 -44 17 -66c-8 -8 -20 -11 -30 -13z
M246 193c4 -30 -15 -61 -45 -61c-37 1 -58 44 -32 70c2 2 3 5 5 7c22 28 66 19 72 -16z" />
    <glyph glyph-name="minus" unicode="&#x2212;" horiz-adv-x="386" 
d="M325 291c-38 -8 -218 -12 -256 -12c-2 0 -12 1 -14 2c-13 2 -26 13 -31 26c-15 34 16 69 50 56c4 -1 8 -4 11 -4c36 0 199 3 234 13c6 1 13 0 19 -2c29 -8 38 -44 17 -66c-8 -8 -20 -11 -30 -13z" />
    </font>
</defs>
</svg>
